<?xml version="1.0" encoding="UTF-8" standalone="no" ?>
<!DOCTYPE svg PUBLIC "-//W3C//DTD SVG 1.1//EN" "http://www.w3.org/Graphics/SVG/1.1/DTD/svg11.dtd">
<svg xmlns="http://www.w3.org/2000/svg" xmlns:xlink="http://www.w3.org/1999/xlink" version="1.1" width="1080" height="1080" viewBox="0 0 1080 1080" xml:space="preserve">
<desc>Created with Fabric.js 5.2.4</desc>
<defs>
</defs>
<rect x="0" y="0" width="100%" height="100%" fill="transparent"></rect>
<g transform="matrix(1 0 0 1 540 540)" id="53c5cee3-4c05-478b-8532-c7d71dd08c7f"  >
<rect style="stroke: none; stroke-width: 1; stroke-dasharray: none; stroke-linecap: butt; stroke-dashoffset: 0; stroke-linejoin: miter; stroke-miterlimit: 4; fill: rgb(255,255,255); fill-rule: nonzero; opacity: 1; visibility: hidden;" vector-effect="non-scaling-stroke"  x="-540" y="-540" rx="0" ry="0" width="1080" height="1080" />
</g>
<g transform="matrix(1 0 0 1 540 540)" id="5c1dcfc3-7605-4a58-a4d3-fee54385a8e1"  >
</g>
<g transform="matrix(1 0 0 1 517.28 560.83)"  >
<g style="" vector-effect="non-scaling-stroke"   >
		<g transform="matrix(1 0 0 1 0 0)"  >
<rect style="stroke: none; stroke-width: 1; stroke-dasharray: none; stroke-linecap: butt; stroke-dashoffset: 0; stroke-linejoin: miter; stroke-miterlimit: 4; fill: rgb(0,0,0); fill-rule: nonzero; opacity: 1; visibility: hidden;" vector-effect="non-scaling-stroke"  x="-540" y="-540" rx="0" ry="0" width="1080" height="1080" />
</g>
		<g transform="matrix(1.33 0 0 1.33 0 -51.92)"  >
<path style="stroke: none; stroke-width: 1; stroke-dasharray: none; stroke-linecap: butt; stroke-dashoffset: 0; stroke-linejoin: miter; stroke-miterlimit: 4; fill: rgb(0,0,0); fill-rule: nonzero; opacity: 1;" vector-effect="non-scaling-stroke"  transform=" translate(-350, -280)" d="M 621.25 173.05 L 621.25 106.94500000000001 L 596.734 100.70670000000001 C 595.691 97.9137 594.5192000000001 95.11690000000002 593.234 92.33170000000001 L 606.1750000000001 70.55470000000001 L 559.4330000000001 23.812700000000014 L 537.6560000000001 36.76170000000001 C 534.8826 35.47650000000001 532.0740000000001 34.30470000000001 529.2927000000001 33.26170000000001 L 523.0466000000001 8.753700000000013 L 456.9416000000001 8.753700000000013 L 450.7111000000001 33.269700000000014 C 447.9299000000001 34.312700000000014 445.1213000000001 35.472800000000014 442.3478000000001 36.769700000000014 L 420.57080000000013 23.820700000000016 L 385.14880000000016 59.24270000000001 C 372.7348000000002 49.22270000000002 357.41080000000017 43.754700000000014 341.25080000000014 43.754700000000014 C 329.14880000000016 43.754700000000014 317.7588000000001 46.84450000000001 307.81680000000017 52.27030000000001 C 290.10580000000016 25.293300000000013 260.2078000000002 8.754300000000015 227.50080000000017 8.754300000000015 C 174.43080000000018 8.754300000000015 131.25080000000017 51.934300000000015 131.25080000000017 105.00430000000001 C 131.25080000000017 108.13710000000002 131.46955000000017 111.26210000000002 131.77424000000016 114.37540000000001 C 130.15704000000017 114.58634 128.53594000000015 114.77774000000001 126.91874000000016 115.11759 C 103.75874000000016 119.94569000000001 84.94574000000016 138.75859 80.11374000000015 161.92259 C 76.26214000000014 180.39559000000003 80.75436000000015 199.23159 92.44174000000015 213.61759 C 104.14074000000015 228.00459 121.47674000000015 236.25459 140.00074000000015 236.25459 L 210.00074000000015 236.25459 C 214.82884000000016 236.25459 218.75074000000015 240.18429 218.75074000000015 245.00459 L 218.75074000000015 262.50459 C 218.75074000000015 267.32489 214.82884000000016 271.25459 210.00074000000015 271.25459 L 148.75074000000015 271.25459 C 134.27774000000014 271.25459 122.50074000000015 283.03159 122.50074000000015 297.50459 C 122.50074000000015 311.97759 134.27774000000014 323.75459 148.75074000000015 323.75459 L 227.50074000000015 323.75459 C 232.32884000000016 323.75459 236.25074000000015 327.68429000000003 236.25074000000015 332.50459 L 236.25074000000015 428.75459 L 122.50074000000015 428.75459 C 98.37574000000015 428.75459 78.75074000000015 448.37959 78.75074000000015 472.50459 C 78.75074000000015 496.62959 98.37574000000015 516.25459 122.50074000000015 516.25459 L 271.2507400000002 516.25459 L 271.2507400000002 551.25459 L 586.2507400000002 551.25459 L 586.2507400000002 229.36459000000002 L 606.1727400000002 209.43059000000002 L 593.2317400000002 187.65359 C 594.5169400000002 184.88019 595.6887400000002 182.07939000000002 596.7317400000002 179.29029 z M 227.5 306.25 L 148.75 306.25 C 143.9219 306.25 140 302.3203 140 297.5 C 140 292.6797 143.9219 288.75 148.75 288.75 L 210 288.75 C 224.473 288.75 236.25 276.973 236.25 262.5 L 236.25 245 C 236.25 230.527 224.473 218.75 210 218.75 L 140 218.75 C 126.77 218.75 114.39099999999999 212.8516 106.031 202.57 C 97.6755 192.289 94.47200000000001 178.777 97.238 165.488 C 100.6755 149.039 114.031 135.676 130.488 132.246 C 143.797 129.4648 157.297 132.67569 167.57 141.0312 C 177.851 149.3906 183.75 161.7692 183.75 175.0002 L 201.25 175.0002 C 201.25 156.4772 193.0078 139.1522 178.613 127.45320000000001 C 170.0974 120.53130000000002 160.011 116.19120000000001 149.363 114.55520000000001 C 148.97628 111.3872 148.74972 108.20360000000001 148.74972 105.00050000000002 C 148.74972 61.58250000000002 184.07371999999998 26.250500000000017 227.49972 26.250500000000017 C 254.54672 26.250500000000017 279.22972 40.074500000000015 293.64772 62.57050000000002 C 279.91372 75.35550000000002 271.24971999999997 93.53950000000002 271.24971999999997 113.75050000000002 L 288.74971999999997 113.75050000000002 C 288.74971999999997 84.79750000000001 312.29672 61.25050000000002 341.24971999999997 61.25050000000002 C 354.33171999999996 61.25050000000002 366.65972 66.06300000000002 376.31971999999996 74.77050000000001 L 386.76872 92.34850000000002 C 385.48352 95.12970000000001 384.31172 97.92270000000002 383.26872 100.72350000000002 L 358.74872 106.95400000000002 L 358.74872 173.05900000000003 L 383.26472 179.29730000000004 C 384.30772 182.09030000000004 385.47952000000004 184.88710000000003 386.76472 187.66060000000004 L 373.82372000000004 209.43760000000003 L 383.13622000000004 218.75010000000003 L 253.74622000000005 218.75010000000003 L 253.74622000000005 236.25010000000003 L 271.24622000000005 236.25010000000003 L 271.24622000000005 428.75010000000003 L 253.74622000000005 428.75010000000003 L 253.74622000000005 332.50010000000003 C 253.74622000000005 318.0271 241.96922000000006 306.25010000000003 227.49622000000005 306.25010000000003 z M 183.75 498.75 L 166.25 498.75 L 166.25 446.25 L 183.75 446.25 z M 201.25 481.25 L 306.25 481.25 L 306.25 498.75 L 201.25 498.75 z M 323.75 450.125 L 373.738 468.867 C 375.2419 469.43731 376.2497 470.8904 376.2497 472.4998 C 376.2497 474.1092 375.24190000000004 475.5623 373.7302 476.13259999999997 L 323.7502 494.8746 z M 306.25 463.75 L 201.25 463.75 L 201.25 446.25 L 306.25 446.25 z M 96.25 472.5 C 96.25 458.027 108.027 446.25 122.5 446.25 L 148.75 446.25 L 148.75 498.75 L 122.5 498.75 C 108.027 498.75 96.25 486.973 96.25 472.5 z M 568.75 533.75 L 288.75 533.75 L 288.75 516.25 L 316.594 516.25 L 379.875 492.52 C 388.168 489.4145 393.75 481.364 393.75 472.5 C 393.75 463.636 388.168 455.586 379.883 452.48 L 316.594 428.75 L 288.75 428.75 L 288.75 236.25 L 400.64 236.25 L 420.574 256.184 L 442.351 243.235 C 445.1244 244.52020000000002 447.933 245.692 450.7143 246.735 L 456.9565 271.25100000000003 L 523.0615 271.25100000000003 L 529.2998 246.73500000000004 C 532.081 245.69200000000004 534.8896 244.53190000000004 537.6631 243.23500000000004 L 559.4401 256.184 L 568.7526 246.86370000000002 z M 583.152 164.68 L 581.6832 169.30110000000002 C 580.1168 174.19170000000003 578.0426000000001 179.1449 575.523 184.02810000000002 L 573.2847 188.34060000000002 L 584.1867000000001 206.68060000000003 L 556.6867000000001 234.18060000000003 L 538.3547000000001 223.27860000000004 L 534.0500000000001 225.50130000000004 C 529.1516 228.02860000000004 524.1984000000001 230.09510000000003 519.296 231.66150000000005 L 514.6749000000001 233.14200000000005 L 509.4522000000001 253.74700000000004 L 470.55720000000014 253.74700000000004 L 465.32280000000014 233.14900000000006 L 460.70170000000013 231.66850000000005 C 455.80330000000015 230.10210000000006 450.8501000000001 228.03570000000005 445.9477000000001 225.50830000000005 L 441.6430000000001 223.28560000000004 L 423.3110000000001 234.18760000000003 L 395.8110000000001 206.68760000000003 L 406.7130000000001 188.34760000000003 L 404.4747000000001 184.03510000000003 C 401.9552000000001 179.15230000000003 399.8809000000001 174.19920000000002 398.3145000000001 169.30810000000002 L 396.84570000000014 164.687 L 376.2477000000001 159.4487 L 376.2477000000001 120.55369999999999 L 396.84570000000014 115.3115 L 398.3145000000001 110.6904 C 399.8809000000001 105.8076 401.95510000000013 100.8466 404.48250000000013 95.9634 L 406.71300000000014 91.6509 L 395.81100000000015 73.31889999999999 L 423.31100000000015 45.818899999999985 L 441.64300000000014 56.720899999999986 L 445.94770000000017 54.49819999999998 C 450.84610000000015 51.970899999999986 455.7993000000002 49.90439999999998 460.7017000000002 48.33799999999998 L 465.3228000000002 46.85749999999998 L 470.5455000000002 26.24449999999998 L 509.44050000000016 26.24449999999998 L 514.6749000000002 46.84249999999998 L 519.2960000000002 48.32299999999998 C 524.1944000000002 49.88939999999998 529.1476000000001 51.95579999999998 534.0500000000002 54.48319999999998 L 538.3547000000002 56.705899999999986 L 556.6867000000002 45.803899999999985 L 584.1867000000002 73.30389999999998 L 573.2847000000002 91.63589999999999 L 575.5152000000002 95.94839999999999 C 578.0425000000001 100.839 580.1168000000001 105.7922 581.6832000000002 110.6754 L 583.1520000000002 115.2965 L 603.7500000000001 120.5426 L 603.7500000000001 159.4376 z" stroke-linecap="round" />
</g>
		<g transform="matrix(1.33 0 0 1.33 190.79 -237.15)"  >
<path style="stroke: none; stroke-width: 1; stroke-dasharray: none; stroke-linecap: butt; stroke-dashoffset: 0; stroke-linejoin: miter; stroke-miterlimit: 4; fill: rgb(0,0,0); fill-rule: nonzero; opacity: 1;" vector-effect="non-scaling-stroke"  transform=" translate(-490, -140)" d="M 490 61.25 C 446.574 61.25 411.25 96.582 411.25 140 C 411.25 183.418 446.574 218.75 490 218.75 C 533.4259999999999 218.75 568.75 183.418 568.75 140 C 568.75 96.582 533.426 61.25 490 61.25 z M 490 201.25 C 456.234 201.25 428.75 173.773 428.75 140 C 428.75 106.227 456.234 78.75 490 78.75 C 523.7660000000001 78.75 551.25 106.227 551.25 140 C 551.25 173.773 523.766 201.25 490 201.25 z" stroke-linecap="round" />
</g>
		<g transform="matrix(1.33 0 0 1.33 192.18 -236.03)"  >
<path style="stroke: none; stroke-width: 1; stroke-dasharray: none; stroke-linecap: butt; stroke-dashoffset: 0; stroke-linejoin: miter; stroke-miterlimit: 4; fill: rgb(0,0,0); fill-rule: nonzero; opacity: 1;" vector-effect="non-scaling-stroke"  transform=" translate(-490, -140)" d="M 490 96.25 C 465.875 96.25 446.25 115.875 446.25 140 C 446.25 164.125 465.875 183.75 490 183.75 C 514.125 183.75 533.75 164.125 533.75 140 C 533.75 115.875 514.125 96.25 490 96.25 z M 490 166.25 C 475.527 166.25 463.75 154.473 463.75 140 C 463.75 125.52699999999999 475.527 113.75 490 113.75 C 504.473 113.75 516.25 125.527 516.25 140 C 516.25 154.473 504.473 166.25 490 166.25 z" stroke-linecap="round" />
</g>
		<g transform="matrix(1.33 0 0 1.33 -13.25 95.97)"  >
<path style="stroke: none; stroke-width: 1; stroke-dasharray: none; stroke-linecap: butt; stroke-dashoffset: 0; stroke-linejoin: miter; stroke-miterlimit: 4; fill: rgb(0,0,0); fill-rule: nonzero; opacity: 1;" vector-effect="non-scaling-stroke"  transform=" translate(-336.88, -383.72)" d="M 323.75 390.13 L 312.438 378.814 L 300.063 391.189 L 323.751 414.87300000000005 L 373.68899999999996 364.9390000000001 L 361.31399999999996 352.5640000000001 z" stroke-linecap="round" />
</g>
		<g transform="matrix(1.33 0 0 1.33 -16.34 0.65)"  >
<path style="stroke: none; stroke-width: 1; stroke-dasharray: none; stroke-linecap: butt; stroke-dashoffset: 0; stroke-linejoin: miter; stroke-miterlimit: 4; fill: rgb(0,0,0); fill-rule: nonzero; opacity: 1;" vector-effect="non-scaling-stroke"  transform=" translate(-336.88, -313.72)" d="M 323.75 320.13 L 312.438 308.814 L 300.063 321.189 L 323.751 344.87300000000005 L 373.68899999999996 294.9390000000001 L 361.31399999999996 282.5640000000001 z" stroke-linecap="round" />
</g>
		<g transform="matrix(1.33 0 0 1.33 167.46 -99.92)"  >
<path style="stroke: none; stroke-width: 1; stroke-dasharray: none; stroke-linecap: butt; stroke-dashoffset: 0; stroke-linejoin: miter; stroke-miterlimit: 4; fill: rgb(0,0,0); fill-rule: nonzero; opacity: 1;" vector-effect="non-scaling-stroke"  transform=" translate(-472.5, -297.5)" d="M 393.75 288.75 L 551.25 288.75 L 551.25 306.25 L 393.75 306.25 z" stroke-linecap="round" />
</g>
		<g transform="matrix(1.33 0 0 1.33 190.85 31.75)"  >
<path style="stroke: none; stroke-width: 1; stroke-dasharray: none; stroke-linecap: butt; stroke-dashoffset: 0; stroke-linejoin: miter; stroke-miterlimit: 4; fill: rgb(0,0,0); fill-rule: nonzero; opacity: 1;" vector-effect="non-scaling-stroke"  transform=" translate(-490, -332.5)" d="M 428.75 323.75 L 551.25 323.75 L 551.25 341.25 L 428.75 341.25 z" stroke-linecap="round" />
</g>
		<g transform="matrix(1.33 0 0 1.33 74.36 30.75)"  >
<path style="stroke: none; stroke-width: 1; stroke-dasharray: none; stroke-linecap: butt; stroke-dashoffset: 0; stroke-linejoin: miter; stroke-miterlimit: 4; fill: rgb(0,0,0); fill-rule: nonzero; opacity: 1;" vector-effect="non-scaling-stroke"  transform=" translate(-402.5, -332.5)" d="M 393.75 323.75 L 411.25 323.75 L 411.25 341.25 L 393.75 341.25 z" stroke-linecap="round" />
</g>
		<g transform="matrix(1.33 0 0 1.33 167.46 80.42)"  >
<path style="stroke: none; stroke-width: 1; stroke-dasharray: none; stroke-linecap: butt; stroke-dashoffset: 0; stroke-linejoin: miter; stroke-miterlimit: 4; fill: rgb(0,0,0); fill-rule: nonzero; opacity: 1;" vector-effect="non-scaling-stroke"  transform=" translate(-472.5, -367.5)" d="M 393.75 358.75 L 551.25 358.75 L 551.25 376.25 L 393.75 376.25 z" stroke-linecap="round" />
</g>
		<g transform="matrix(1.33 0 0 1.33 261.03 126.08)"  >
<path style="stroke: none; stroke-width: 1; stroke-dasharray: none; stroke-linecap: butt; stroke-dashoffset: 0; stroke-linejoin: miter; stroke-miterlimit: 4; fill: rgb(0,0,0); fill-rule: nonzero; opacity: 1;" vector-effect="non-scaling-stroke"  transform=" translate(-542.5, -402.5)" d="M 533.75 393.75 L 551.25 393.75 L 551.25 411.25 L 533.75 411.25 z" stroke-linecap="round" />
</g>
		<g transform="matrix(1.33 0 0 1.33 144.18 126.08)"  >
<path style="stroke: none; stroke-width: 1; stroke-dasharray: none; stroke-linecap: butt; stroke-dashoffset: 0; stroke-linejoin: miter; stroke-miterlimit: 4; fill: rgb(0,0,0); fill-rule: nonzero; opacity: 1;" vector-effect="non-scaling-stroke"  transform=" translate(-455, -402.5)" d="M 393.75 393.75 L 516.25 393.75 L 516.25 411.25 L 393.75 411.25 z" stroke-linecap="round" />
</g>
		<g transform="matrix(1.33 0 0 1.33 120.96 211.35)"  >
<path style="stroke: none; stroke-width: 1; stroke-dasharray: none; stroke-linecap: butt; stroke-dashoffset: 0; stroke-linejoin: miter; stroke-miterlimit: 4; fill: rgb(0,0,0); fill-rule: nonzero; opacity: 1;" vector-effect="non-scaling-stroke"  transform=" translate(-437.5, -472.5)" d="M 437.5 446.25 C 423.027 446.25 411.25 458.027 411.25 472.5 C 411.25 486.973 423.027 498.75 437.5 498.75 C 451.973 498.75 463.75 486.973 463.75 472.5 C 463.75 458.027 451.973 446.25 437.5 446.25 z M 437.5 481.25 C 432.6719 481.25 428.75 477.3203 428.75 472.5 C 428.75 467.6797 432.6719 463.75 437.5 463.75 C 442.3281 463.75 446.25 467.6797 446.25 472.5 C 446.25 477.3203 442.3281 481.25 437.5 481.25 z" stroke-linecap="round" />
</g>
		<g transform="matrix(1.33 0 0 1.33 214.3 209.35)"  >
<path style="stroke: none; stroke-width: 1; stroke-dasharray: none; stroke-linecap: butt; stroke-dashoffset: 0; stroke-linejoin: miter; stroke-miterlimit: 4; fill: rgb(0,0,0); fill-rule: nonzero; opacity: 1;" vector-effect="non-scaling-stroke"  transform=" translate(-507.5, -472.5)" d="M 507.5 446.25 C 493.027 446.25 481.25 458.027 481.25 472.5 C 481.25 486.973 493.027 498.75 507.5 498.75 C 521.973 498.75 533.75 486.973 533.75 472.5 C 533.75 458.027 521.973 446.25 507.5 446.25 z M 507.5 481.25 C 502.6719 481.25 498.75 477.3203 498.75 472.5 C 498.75 467.6797 502.6719 463.75 507.5 463.75 C 512.3281 463.75 516.25 467.6797 516.25 472.5 C 516.25 477.3203 512.3281 481.25 507.5 481.25 z" stroke-linecap="round" />
</g>
</g>
</g>
<g transform="matrix(11.54 0 0 11.54 540 540)" id="c394155d-2c47-414a-ad23-150ea1e2ce05"  >
<path style="stroke: rgb(0,0,0); stroke-width: 0; stroke-dasharray: none; stroke-linecap: butt; stroke-dashoffset: 0; stroke-linejoin: miter; stroke-miterlimit: 4; fill: rgb(0,0,0); fill-rule: nonzero; opacity: 1;" vector-effect="non-scaling-stroke"  transform=" translate(-50, -50)" d="M 50 92.875 C 26.358 92.875 7.125 73.642 7.125 50 C 7.125 26.358000000000004 26.358 7.125 50 7.125 C 73.642 7.125 92.875 26.358 92.875 50 C 92.875 73.642 73.642 92.875 50 92.875 z M 50 9.125 C 27.461 9.125 9.125 27.461 9.125 50 C 9.125 72.538 27.461 90.875 50 90.875 C 72.538 90.875 90.875 72.538 90.875 50 C 90.875 27.461 72.538 9.125 50 9.125 z" stroke-linecap="round" />
</g>
</svg>