<?xml version="1.0" encoding="UTF-8" standalone="no" ?>
<!DOCTYPE svg PUBLIC "-//W3C//DTD SVG 1.1//EN" "http://www.w3.org/Graphics/SVG/1.1/DTD/svg11.dtd">
<svg xmlns="http://www.w3.org/2000/svg" xmlns:xlink="http://www.w3.org/1999/xlink" version="1.1" width="1080" height="1080" viewBox="0 0 1080 1080" xml:space="preserve">
<desc>Created with Fabric.js 5.2.4</desc>
<defs>
</defs>
<g transform="matrix(1 0 0 1 540 540)" id="bccf1c54-5be0-4a1a-88a8-edb645dca41e"  >
<rect style="stroke: none; stroke-width: 1; stroke-dasharray: none; stroke-linecap: butt; stroke-dashoffset: 0; stroke-linejoin: miter; stroke-miterlimit: 4; fill: rgb(255,255,255); fill-rule: nonzero; opacity: 1; visibility: hidden;" vector-effect="non-scaling-stroke"  x="-540" y="-540" rx="0" ry="0" width="1080" height="1080" />
</g>
<g transform="matrix(1 0 0 1 540 540)" id="f4d46c75-5583-44fd-999e-f55b88273c2d"  >
</g>
<g transform="matrix(1.33 0 0 1.33 523.66 572.65)"  >
<path style="stroke: none; stroke-width: 1; stroke-dasharray: none; stroke-linecap: butt; stroke-dashoffset: 0; stroke-linejoin: miter; stroke-miterlimit: 4; fill: rgb(0,0,0); fill-rule: nonzero; opacity: 1;" vector-effect="non-scaling-stroke"  transform=" translate(-298.81, -394.88)" d="M 330.16 380.26 C 341.17600000000004 371.1662 348.20700000000005 357.405 348.20700000000005 342.041 C 348.20700000000005 314.717 325.9800000000001 292.494 298.6600000000001 292.494 C 271.3440000000001 292.494 249.11700000000008 314.697 249.11700000000008 341.994 C 249.11700000000008 357.41600000000005 256.1912000000001 371.21700000000004 267.2540000000001 380.322 C 241.29700000000008 386.3493 221.87900000000008 409.611 221.87900000000008 437.377 L 221.87900000000008 497.26800000000003 L 375.7490000000001 497.26800000000003 L 375.7490000000001 437.37 C 375.7490000000001 409.526 356.2220000000001 386.21000000000004 330.1590000000001 380.261 z M 298.66 310.479 C 316.06600000000003 310.479 330.22200000000004 324.635 330.22200000000004 342.041 C 330.22200000000004 359.447 316.06600000000003 373.603 298.66 373.603 C 281.262 373.603 267.105 359.423 267.105 341.986 C 267.097187 324.611 281.25300000000004 310.478 298.66 310.478 z M 357.762 479.279 L 239.862 479.279 L 239.862 437.369 C 239.862 414.963 258.089 396.73600000000005 280.495 396.73600000000005 L 317.132 396.73600000000005 C 339.538 396.73600000000005 357.765 414.963 357.765 437.369 L 357.765 479.279 z" stroke-linecap="round" />
</g>
<g transform="matrix(1.33 0 0 1.33 591.91 419.48)"  >
<path style="stroke: none; stroke-width: 1; stroke-dasharray: none; stroke-linecap: butt; stroke-dashoffset: 0; stroke-linejoin: miter; stroke-miterlimit: 4; fill: rgb(0,0,0); fill-rule: nonzero; opacity: 1;" vector-effect="non-scaling-stroke"  transform=" translate(-350, -280.01)" d="M 506.01 380.26 C 517.026 371.1662 524.053 357.412 524.053 342.041 C 524.053 330.881 520.2991 320.6 514.045 312.307 L 514.045 289.15500000000003 C 514.045 264.206 496.93199999999996 243.23300000000003 473.842 237.21000000000004 C 483.24039999999997 228.86230000000003 489.20099999999996 216.71800000000005 489.20099999999996 203.19000000000003 C 489.20099999999996 178.06100000000004 468.76 157.62400000000002 443.635 157.62400000000002 C 442.6233 157.62400000000002 441.6311 157.70993800000002 440.6389 157.77634000000003 L 440.6389 62.73734000000003 L 148.39889999999997 62.73734000000003 L 148.39889999999997 283.52734000000004 L 358.36889999999994 283.52734000000004 C 362.20089999999993 288.87114 367.45089999999993 293.04684000000003 373.51689999999996 295.52334 L 373.51689999999996 335.05834000000004 L 391.50489999999996 335.05834000000004 L 391.52052599999996 281.15234000000004 L 383.98932599999995 279.91014 C 379.2745259999999 279.13280000000003 375.24322599999994 276.55074 372.63432599999993 272.65234000000004 L 332.9233259999999 213.18734000000003 L 338.4467259999999 209.47644000000003 L 372.6347259999999 260.66044 C 377.7402259999999 268.28934 388.02972599999987 270.46514 395.7757259999999 265.62924 L 408.6777259999999 258.68394 C 409.8808259999999 257.94566000000003 412.9511259999999 256.42614000000003 412.9433259999999 256.42224 C 417.5019259999999 254.41834 422.3222259999999 253.40274 427.2633259999999 253.40274 L 460.3023259999999 253.40274 C 480.0213259999999 253.40274 496.0643259999999 269.44574 496.0643259999999 289.16074 L 496.0643259999999 297.50054 C 489.5409259999999 294.33254 482.2443259999999 292.50054 474.51732599999985 292.50054 C 447.19332599999984 292.50054 424.9703259999999 314.70354 424.9703259999999 342.00054 C 424.9703259999999 357.42254 432.0445259999999 371.22354 443.1073259999999 380.32854 C 417.1503259999999 386.35584 397.7323259999999 409.61753999999996 397.7323259999999 437.38354 L 397.7323259999999 497.27454 L 551.602326 497.266727 L 551.602326 437.368727 C 551.602326 409.524727 532.0753259999999 386.20872699999995 506.0123259999999 380.259727 z M 471.217 203.19 C 471.217 218.393 458.846 230.764 443.639 230.764 C 428.43600000000004 230.764 416.065 218.377 416.065 203.139 C 416.065 187.959 428.436 175.604 443.639 175.604 C 458.846 175.607906 471.217 187.979 471.217 203.19 z M 405.287 240.143 C 405.287 240.143 400.93539999999996 242.3266 399.7206 243.0883 L 387.0646 249.8852 L 343.3766 184.4792 L 308.0056 208.2722 L 346.2516 265.5382 L 166.3816 265.5382 L 166.3816 80.71820000000002 L 422.6516 80.71820000000002 L 422.6516 162.78020000000004 C 408.0696 170.37790000000004 398.0736 185.60420000000005 398.0736 203.14320000000004 C 398.0736 216.74120000000005 404.0814 228.93220000000002 413.5426 237.29920000000004 C 410.7809 238.03357000000005 408.0309 238.92810000000003 405.2887 240.13900000000004 z M 474.51 310.479 C 491.908 310.479 506.065 324.635 506.065 342.041 C 506.065 359.447 491.909 373.603 474.51 373.603 C 457.104 373.603 442.948 359.423 442.948 341.986 C 442.948 324.611 457.104 310.478 474.51 310.478 z M 533.612 479.279 L 415.712 479.279 L 415.712 437.369 C 415.712 414.963 433.93899999999996 396.73600000000005 456.34499999999997 396.73600000000005 L 492.986 396.73600000000005 C 515.3919999999999 396.73600000000005 533.619 414.963 533.619 437.369 L 533.619 479.279 z" stroke-linecap="round" />
</g>
<g transform="matrix(1.33 0 0 1.33 436.99 239.05)"  >
<path style="stroke: none; stroke-width: 1; stroke-dasharray: none; stroke-linecap: butt; stroke-dashoffset: 0; stroke-linejoin: miter; stroke-miterlimit: 4; fill: rgb(0,0,0); fill-rule: nonzero; opacity: 1;" vector-effect="non-scaling-stroke"  transform=" translate(-233.81, -144.68)" d="M 264.16 92.281 L 203.44100000000003 92.281 C 189.11700000000002 92.281 177.45700000000002 103.941 177.45700000000002 118.269 L 177.45700000000002 171.09300000000002 C 177.45700000000002 185.425 189.11700000000002 197.08100000000002 203.44100000000003 197.08100000000002 L 264.168 197.08100000000002 C 278.5 197.08100000000002 290.156 185.42100000000002 290.156 171.09300000000002 L 290.156 118.27300000000002 C 290.15209400000003 103.94100000000003 278.496 92.28100000000002 264.16 92.28100000000002 z M 272.1678 171.101 C 272.1678 175.5151 268.578 179.1049 264.1639 179.1049 L 203.4409 179.1049 C 199.0347 179.1049 195.4448 175.5151 195.4448 171.101 L 195.4448 118.273 C 195.4448 113.85889999999999 199.03459999999998 110.2691 203.4409 110.2691 L 264.1679 110.2691 C 268.582 110.2691 272.17179999999996 113.85889999999999 272.17179999999996 118.273 z" stroke-linecap="round" />
</g>
<g transform="matrix(1.33 0 0 1.33 610.02 196.74)"  >
<path style="stroke: none; stroke-width: 1; stroke-dasharray: none; stroke-linecap: butt; stroke-dashoffset: 0; stroke-linejoin: miter; stroke-miterlimit: 4; fill: rgb(0,0,0); fill-rule: nonzero; opacity: 1;" vector-effect="non-scaling-stroke"  transform=" translate(-363.58, -112.94)" d="M 320.46 103.95 L 406.71 103.95 L 406.71 121.938 L 320.46 121.938 z" stroke-linecap="round" />
</g>
<g transform="matrix(1.33 0 0 1.33 585.94 244.26)"  >
<path style="stroke: none; stroke-width: 1; stroke-dasharray: none; stroke-linecap: butt; stroke-dashoffset: 0; stroke-linejoin: miter; stroke-miterlimit: 4; fill: rgb(0,0,0); fill-rule: nonzero; opacity: 1;" vector-effect="non-scaling-stroke"  transform=" translate(-345.52, -148.58)" d="M 320.46 139.59 L 370.58099999999996 139.59 L 370.58099999999996 157.578 L 320.46 157.578 z" stroke-linecap="round" />
</g>
</svg>