<?xml version="1.0" encoding="UTF-8" standalone="no" ?>
<!DOCTYPE svg PUBLIC "-//W3C//DTD SVG 1.1//EN" "http://www.w3.org/Graphics/SVG/1.1/DTD/svg11.dtd">
<svg xmlns="http://www.w3.org/2000/svg" xmlns:xlink="http://www.w3.org/1999/xlink" version="1.1" width="1080" height="1080" viewBox="0 0 1080 1080" xml:space="preserve">
<desc>Created with Fabric.js 5.2.4</desc>
<defs>
</defs>
<rect x="0" y="0" width="100%" height="100%" fill="transparent"></rect>
<g transform="matrix(1 0 0 1 540 540)" id="53c5cee3-4c05-478b-8532-c7d71dd08c7f"  >
<rect style="stroke: none; stroke-width: 1; stroke-dasharray: none; stroke-linecap: butt; stroke-dashoffset: 0; stroke-linejoin: miter; stroke-miterlimit: 4; fill: rgb(255,255,255); fill-rule: nonzero; opacity: 1; visibility: hidden;" vector-effect="non-scaling-stroke"  x="-540" y="-540" rx="0" ry="0" width="1080" height="1080" />
</g>
<g transform="matrix(1 0 0 1 540 540)" id="5c1dcfc3-7605-4a58-a4d3-fee54385a8e1"  >
</g>
<g transform="matrix(11.4 0 0 11.4 540 540)" id="63c9ddac-5f8a-47d3-9009-41a873a32585"  >
<path style="stroke: rgb(0,0,0); stroke-width: 0; stroke-dasharray: none; stroke-linecap: butt; stroke-dashoffset: 0; stroke-linejoin: miter; stroke-miterlimit: 4; fill: rgb(0,0,0); fill-rule: nonzero; opacity: 1;" vector-effect="non-scaling-stroke"  transform=" translate(-50, -50)" d="M 50 92.875 C 26.358 92.875 7.125 73.642 7.125 50 C 7.125 26.358000000000004 26.358 7.125 50 7.125 C 73.642 7.125 92.875 26.358 92.875 50 C 92.875 73.642 73.642 92.875 50 92.875 z M 50 9.125 C 27.461 9.125 9.125 27.461 9.125 50 C 9.125 72.538 27.461 90.875 50 90.875 C 72.538 90.875 90.875 72.538 90.875 50 C 90.875 27.461 72.538 9.125 50 9.125 z" stroke-linecap="round" />
</g>
<g transform="matrix(1.33 0 0 1.33 621.41 540)"  >
<path style="stroke: none; stroke-width: 1; stroke-dasharray: none; stroke-linecap: butt; stroke-dashoffset: 0; stroke-linejoin: miter; stroke-miterlimit: 4; fill: rgb(0,0,0); fill-rule: nonzero; opacity: 1;" vector-effect="non-scaling-stroke"  transform=" translate(-350, -280)" d="M 208.19 456.41 L 208.19 459.26160000000004 C 208.19 469.44160000000005 199.9048 477.72260000000006 189.721 477.72260000000006 L 145.272 477.72260000000006 C 135.09199999999998 477.72260000000006 126.81099999999999 469.4374000000001 126.81099999999999 459.26160000000004 L 126.81099999999999 414.81260000000003 C 126.81099999999999 404.6286 135.09619999999998 396.34360000000004 145.272 396.34360000000004 L 189.721 396.34360000000004 C 194.471 396.34360000000004 198.9827 398.15220000000005 202.436 401.4295 C 205.4829 404.324 205.5962 409.1365 202.70553 412.1795 C 199.81103000000002 415.21860000000004 194.99853000000002 415.3397 191.95553 412.44903 C 191.60006 412.10919 190.84223 411.55059 189.72113000000002 411.55059 L 145.27213 411.55059 C 143.47523 411.55059 142.01823000000002 413.01539 142.01823000000002 414.81229 L 142.01823000000002 459.26129000000003 C 142.01823000000002 461.05819 143.48303 462.52299000000005 145.27213 462.52299000000005 L 189.72113000000002 462.52299000000005 C 191.51803 462.52299000000005 192.98283 461.05819 192.98283 459.26129000000003 L 192.98283 456.40969 C 192.98283 452.21049 196.38903000000002 448.80809 200.58443 448.80809 C 204.78753 448.80809 208.18993 452.21039 208.18993 456.40969 z M 145.276 218.78000000000003 L 189.72500000000002 218.78000000000003 C 199.90900000000002 218.78000000000003 208.19400000000002 210.49480000000003 208.19400000000002 200.31900000000002 L 208.19400000000002 197.45960000000002 C 208.19400000000002 193.26040000000003 204.7878 189.85800000000003 200.59240000000003 189.85800000000003 C 196.39320000000004 189.85800000000003 192.99080000000004 193.26420000000005 192.99080000000004 197.45960000000002 L 192.99080000000004 200.3112 C 192.99080000000004 202.1081 191.52600000000004 203.5729 189.72910000000005 203.5729 L 145.28010000000006 203.5729 C 143.48320000000007 203.5729 142.02620000000007 202.1081 142.02620000000007 200.3112 L 142.02620000000007 155.86220000000003 C 142.02620000000007 154.06530000000004 143.49100000000007 152.60050000000004 145.28010000000006 152.60050000000004 L 189.72910000000007 152.60050000000004 C 190.8502000000001 152.60050000000004 191.61190000000008 153.16691000000003 191.96350000000007 153.49894000000003 C 195.01040000000006 156.39344000000003 199.82290000000006 156.26844000000003 202.71350000000007 153.22941000000003 C 205.60800000000006 150.18251000000004 205.48300000000006 145.37001000000004 202.44397000000006 142.47941000000003 C 198.99087000000006 139.19421000000003 194.47517000000008 137.39351000000002 189.72897000000006 137.39351000000002 L 145.27997000000005 137.39351000000002 C 135.09997000000004 137.39351000000002 126.81897000000005 145.67871000000002 126.81897000000005 155.86251000000001 L 126.81897000000005 200.31151 C 126.81506400000005 210.49951 135.09627000000006 218.78051 145.27597000000006 218.78051 z M 145.276 348.25 L 189.72500000000002 348.25 C 199.90900000000002 348.25 208.19400000000002 339.9648 208.19400000000002 329.781 L 208.19400000000002 326.9294 C 208.19400000000002 322.73019999999997 204.7878 319.32779999999997 200.59240000000003 319.32779999999997 C 196.39320000000004 319.32779999999997 192.99080000000004 322.734 192.99080000000004 326.9294 L 192.99080000000004 329.781 C 192.99080000000004 331.5779 191.52600000000004 333.0427 189.72910000000005 333.0427 L 145.28010000000006 333.0427 C 143.48320000000007 333.0427 142.02620000000007 331.5779 142.02620000000007 329.781 L 142.02620000000007 285.332 C 142.02620000000007 283.5351 143.49100000000007 282.0703 145.28010000000006 282.0703 L 189.72910000000007 282.0703 C 190.8502000000001 282.0703 191.61190000000008 282.63671 191.96350000000007 282.96873999999997 C 195.01040000000006 285.86323999999996 199.82290000000006 285.73823999999996 202.71350000000007 282.69921 C 205.60800000000006 279.65231 205.48300000000006 274.83981 202.44397000000006 271.94921 C 198.99087000000006 268.66401 194.47517000000008 266.86331 189.72897000000006 266.86331 L 145.27997000000005 266.86331 C 135.09997000000004 266.86331 126.81897000000005 275.14851 126.81897000000005 285.32431 L 126.81897000000005 329.77331000000004 C 126.81506400000005 339.96431 135.09627000000006 348.25031 145.27597000000006 348.25031 z M 358.446 449.2 L 256.836 449.2 C 252.63680000000002 449.2 249.23440000000002 452.6062 249.23440000000002 456.8016 C 249.23440000000002 461.0008 252.64060000000003 464.4032 256.836 464.4032 L 358.446 464.4032 C 362.64520000000005 464.4032 366.04760000000005 460.997 366.04760000000005 456.8016 C 366.05541300000004 452.6024 362.64920000000006 449.2 358.44990000000007 449.2 z M 460.05600000000004 409.673 L 256.836 409.673 C 252.63680000000002 409.673 249.23440000000002 413.0792 249.23440000000002 417.2746 C 249.23440000000002 421.4699 252.64060000000003 424.87620000000004 256.836 424.87620000000004 L 460.05600000000004 424.87620000000004 C 464.25520000000006 424.87620000000004 467.65760000000006 421.47 467.65760000000006 417.2746 C 467.65760000000006 413.07930000000005 464.25530000000003 409.673 460.05600000000004 409.673 z M 217.66600000000005 410.59097 L 174.23200000000006 438.48597 L 163.59100000000007 420.86497 C 161.41910000000007 417.27117000000004 156.74720000000008 416.11107000000004 153.15000000000006 418.28687 C 149.55620000000008 420.45877 148.40000000000006 425.13067 150.57190000000006 428.72787 L 165.25590000000005 453.04787 C 166.31840000000005 454.80177 168.04500000000004 456.05957 170.04500000000004 456.52447 C 170.61531000000005 456.65728 171.19340000000005 456.72369000000003 171.76770000000005 456.72369000000003 C 173.21300000000005 456.72369000000003 174.63880000000006 456.30963 175.87320000000005 455.51669000000004 L 225.88120000000006 423.39969 C 229.41640000000007 421.13019 230.44370000000006 416.42699000000005 228.16640000000007 412.89569 C 225.90470000000008 409.34879 221.19760000000008 408.32149 217.66640000000007 410.59099 z M 217.66600000000005 281.11097000000007 L 174.23200000000006 309.00597000000005 L 163.59100000000007 291.38497000000007 C 161.41910000000007 287.7911700000001 156.74720000000008 286.63497000000007 153.15000000000006 288.80687000000006 C 149.55620000000008 290.97877000000005 148.40000000000006 295.65067000000005 150.57190000000006 299.24787000000003 L 165.25590000000005 323.56787 C 166.31840000000005 325.32177 168.04500000000004 326.57957000000005 170.04500000000004 327.04447000000005 C 170.61531000000005 327.17728000000005 171.19340000000005 327.2436900000001 171.76770000000005 327.2436900000001 C 173.21300000000005 327.2436900000001 174.63880000000006 326.82963000000007 175.87320000000005 326.0366900000001 L 225.88120000000006 293.91969000000006 C 229.41640000000007 291.65019000000007 230.44370000000006 286.9469900000001 228.16640000000007 283.41569000000004 C 225.90470000000008 279.86879000000005 221.19760000000008 278.84149 217.66640000000007 281.11099 z M 217.66600000000005 151.64097000000007 L 174.23200000000006 179.53597000000008 L 163.59100000000007 161.91497000000007 C 161.41910000000007 158.32117000000008 156.74720000000008 157.16497000000007 153.15000000000006 159.33687000000006 C 149.55620000000008 161.50877000000006 148.40000000000006 166.18067000000005 150.57190000000006 169.77787000000006 L 165.25590000000005 194.09787000000006 C 166.31840000000005 195.85177000000004 168.04500000000004 197.10957000000005 170.04500000000004 197.57447000000005 C 170.61531000000005 197.70728000000005 171.19340000000005 197.77369000000004 171.76770000000005 197.77369000000004 C 173.21300000000005 197.77369000000004 174.63880000000006 197.35963000000004 175.87320000000005 196.56669000000005 L 225.88120000000006 164.44969000000006 C 229.41640000000007 162.18019000000007 230.44370000000006 157.47699000000006 228.16640000000007 153.94569000000007 C 225.90470000000008 150.39879000000008 221.19760000000008 149.37149000000008 217.66640000000007 151.64099000000007 z M 256.83000000000004 205.46097000000006 L 358.44000000000005 205.46097000000006 C 362.6392000000001 205.46097000000006 366.0416000000001 202.05477000000005 366.0416000000001 197.85937000000007 C 366.0416000000001 193.66407000000007 362.63540000000006 190.25777000000008 358.44000000000005 190.25777000000008 L 256.83000000000004 190.25777000000008 C 252.63080000000005 190.25777000000008 249.22840000000005 193.6639700000001 249.22840000000005 197.85937000000007 C 249.23230700000005 202.05467000000007 252.63070000000005 205.46097000000006 256.83000000000004 205.46097000000006 z M 256.83000000000004 165.93397000000004 L 460.05000000000007 165.93397000000004 C 464.2492000000001 165.93397000000004 467.6516000000001 162.52777000000003 467.6516000000001 158.33237000000005 C 467.6516000000001 154.13697000000008 464.2454000000001 150.73077000000006 460.05000000000007 150.73077000000006 L 256.83000000000004 150.73077000000006 C 252.63080000000005 150.73077000000006 249.22840000000005 154.13697000000008 249.22840000000005 158.33237000000005 C 249.23230700000005 162.52767000000006 252.63070000000005 165.93397000000004 256.83000000000004 165.93397000000004 z M 618.3000000000001 271.82397000000003 L 618.3000000000001 303.79697000000004 C 618.3000000000001 307.47277 615.6711 310.62117000000006 612.0539000000001 311.28137000000004 L 595.5699000000001 314.27357000000006 C 593.6558000000001 320.82437000000004 591.0426000000001 327.13657000000006 587.7535 333.13257000000004 L 597.2965 346.90957000000003 C 599.3903 349.93297 599.0231 354.01507000000004 596.4215 356.61657 L 573.8125 379.22557 C 571.2109 381.82717 567.1289 382.19437 564.1055 380.10057 L 550.3205 370.54977 C 544.3244000000001 373.83887000000004 538.0115000000001 376.45997 531.4685000000001 378.36617 L 528.4763 394.85817000000003 C 527.81614 398.47537000000005 524.6716 401.10427000000004 520.9919 401.10427000000004 L 512.7614 401.10427000000004 L 512.7614 528.22427 C 512.7614 539.2942700000001 503.7536 548.30227 492.6834 548.30227 L 101.78340000000003 548.306177 C 90.71340000000004 548.306177 81.70540000000003 539.2983770000001 81.70540000000003 528.2281770000001 L 81.70540000000003 31.778177000000085 C 81.70540000000003 20.708177000000084 90.71320000000003 11.700177000000085 101.78340000000003 11.700177000000085 L 416.0434 11.700177000000085 C 418.0629 11.700177000000085 419.99260000000004 12.500957000000085 421.4223 13.926777000000085 L 510.5433 103.04777700000008 C 511.9652 104.46967700000008 512.7699 106.40717700000008 512.7699 108.42667700000008 L 512.7699 174.50467700000007 L 521.0004 174.50467700000007 C 524.6762 174.50467700000007 527.8246 177.13357700000006 528.4848000000001 180.75077700000008 L 531.4770000000001 197.24277700000007 C 538.0278000000001 199.1489770000001 544.3320000000001 201.77007700000007 550.3290000000001 205.05917700000006 L 564.114 195.50837700000005 C 567.1374000000001 193.41857700000006 571.2195 193.78177700000006 573.821 196.38337700000005 L 596.4300000000001 218.99237700000006 C 599.0316 221.59397700000005 599.3948 225.67597700000007 597.3050000000001 228.69937700000006 L 587.7542000000001 242.48437700000005 C 591.0433 248.48047700000006 593.6644000000001 254.78537700000004 595.5706000000001 261.336377 L 612.0626000000001 264.32857700000005 C 615.6720000000001 264.98873700000007 618.3009000000001 268.1332770000001 618.3009000000001 271.81297700000005 z M 423.6400000000001 95.96397000000002 C 423.6400000000001 98.65147000000002 425.8275000000001 100.83507000000002 428.5111000000001 100.83507000000002 L 486.79610000000014 100.83507000000002 L 423.64010000000013 37.671070000000014 z M 497.5540000000001 401.10397 L 489.01490000000007 401.10397 C 485.3391000000001 401.10397 482.19070000000005 398.47507 481.5305000000001 394.85787 L 478.53830000000005 378.37387 C 471.98750000000007 376.45977 465.67530000000005 373.84657 459.67930000000007 370.55747 L 445.9023000000001 380.10827 C 442.8789000000001 382.20207 438.7968000000001 381.83487 436.1953000000001 379.23327 L 413.5863000000001 356.62427 C 410.9847000000001 354.02267 410.6215000000001 349.94067 412.7113000000001 346.91727000000003 L 422.2621000000001 333.13227 C 418.97300000000007 327.13617 416.3519000000001 320.82327 414.4457000000001 314.28027000000003 L 397.9537000000001 311.28807 C 394.33650000000006 310.62791 391.70760000000007 307.48337 391.70760000000007 303.80367 L 391.70760000000007 271.83067 C 391.70760000000007 268.15487 394.33650000000006 265.00647 397.9537000000001 264.34627 L 414.43770000000006 261.35407 C 416.3518000000001 254.80326999999997 418.9650000000001 248.48707 422.25410000000005 242.49506999999997 L 412.70330000000007 228.71806999999998 C 410.6095000000001 225.69466999999997 410.97670000000005 221.61256999999998 413.57830000000007 219.01107 L 436.18730000000005 196.40206999999998 C 438.78890000000007 193.80047 442.87090000000006 193.43327 445.89430000000004 195.52706999999998 L 459.67930000000007 205.07787 C 465.6754000000001 201.78877 471.98030000000006 199.16767 478.53130000000004 197.26147 L 481.52350000000007 180.76947 C 482.1836600000001 177.15227000000002 485.3282000000001 174.52337 489.00790000000006 174.52337 L 497.5470000000001 174.52337 L 497.5470000000001 116.04337000000001 L 428.5160000000001 116.04337000000001 C 417.4460000000001 116.04337000000001 408.4380000000001 107.03557 408.4380000000001 95.96537000000001 L 408.4380000000001 26.92237 L 101.77800000000008 26.92237 C 99.09050000000008 26.92237 96.90690000000008 29.10987 96.90690000000008 31.79347 L 96.90690000000008 528.23347 C 96.90690000000008 530.92097 99.09440000000008 533.10457 101.77800000000008 533.10457 L 492.67800000000005 533.1006639999999 C 495.36550000000005 533.1006639999999 497.54910000000007 530.9131639999999 497.54910000000007 528.229564 z M 603.094 278.17397 L 588.086 275.45127 C 585.1055 274.9083 582.7305 272.65047000000004 582.043 269.70517 C 580.0938 261.38097 576.8086 253.45917 572.2852 246.16217 C 570.6875 243.58797 570.7696000000001 240.31057 572.4961400000001 237.82237 L 581.1875400000001 225.27537 L 567.5545400000001 211.64237 L 555.0075400000001 220.33377 C 552.51534 222.06036999999998 549.2380400000001 222.14237 546.6677400000001 220.54470999999998 C 539.37084 216.01740999999998 531.44874 212.73220999999998 523.1247400000001 210.77910999999997 C 520.1716400000001 210.09160999999997 517.91384 207.71660999999997 517.3786400000001 204.73610999999997 L 514.6559400000001 189.72810999999996 L 495.3709400000001 189.72029799999996 L 492.6482400000001 204.72429799999995 C 492.1052700000001 207.70479799999995 489.8474400000001 210.07979799999995 486.9021400000001 210.76729799999995 C 478.57794000000007 212.71649799999994 470.6561400000001 216.00169799999995 463.3591400000001 220.53289799999996 C 460.78494000000006 222.13059799999996 457.50754000000006 222.04849799999997 455.01934000000006 220.32195799999997 L 442.47234000000003 211.63055799999998 L 428.83934000000005 225.263558 L 437.53074000000004 237.806558 C 439.25734000000006 240.298758 439.33934000000005 243.576058 437.74168000000003 246.146358 C 433.21438 253.439358 429.92918000000003 261.361358 427.97608 269.68935799999997 C 427.28858 272.642458 424.90968000000004 274.90025799999995 421.93308 275.435458 L 406.92908 278.15815799999996 L 406.92908 297.43515799999994 L 421.93308 300.1578579999999 C 424.91358 300.70082799999994 427.28858 302.9586579999999 427.97608 305.9078579999999 C 429.92528000000004 314.23205799999994 433.21048 322.1458579999999 437.74168000000003 329.4508579999999 C 439.33938 332.02505799999994 439.25728000000004 335.30245799999994 437.53074000000004 337.79065799999995 L 428.83934000000005 350.337658 L 442.47234000000003 363.97065799999996 L 455.01534000000004 355.27925799999997 C 457.50754000000006 353.55265799999995 460.78484000000003 353.47065799999996 463.35514000000006 355.068318 C 470.64814000000007 359.595618 478.57014000000004 362.880818 486.89814000000007 364.833918 C 489.8512400000001 365.521418 492.10904000000005 367.896418 492.6442400000001 370.876918 L 495.36694000000006 385.880918 L 514.64394 385.880918 L 517.3666400000001 370.876918 C 517.90961 367.896418 520.16744 365.521418 523.11274 364.833918 C 531.43694 362.88471799999996 539.35874 359.599518 546.65574 355.068318 C 549.22994 353.470618 552.50734 353.55271799999997 554.99554 355.27925799999997 L 567.54254 363.97065799999996 L 581.1755400000001 350.337658 L 572.48414 337.79465799999997 C 570.7575400000001 335.30245799999994 570.6755400000001 332.025158 572.2732 329.45485799999994 C 576.8004999999999 322.16185799999994 580.0857 314.23985799999997 582.0387999999999 305.90385799999996 C 582.7262999999999 302.95075799999995 585.1052 300.692958 588.0817999999999 300.15775799999994 L 603.0858 297.43505799999997 L 603.089707 278.17305799999997 z M 556.8950000000001 287.81067 C 556.8950000000001 316.41567000000003 533.6220000000001 339.69767 505.0080000000001 339.69767 C 476.4030000000001 339.69767 453.1250000000001 316.42467 453.1250000000001 287.81067 C 453.1250000000001 259.19667000000004 476.39800000000014 235.92367000000002 505.0080000000001 235.92367000000002 C 533.6210000000001 235.91976400000001 556.8950000000001 259.20067 556.8950000000001 287.81067 z M 541.6880000000001 287.81067 C 541.6880000000001 267.58767 525.2310000000001 251.13067 505.0080000000001 251.13067 C 484.7850000000001 251.13067 468.3280000000001 267.58767 468.3280000000001 287.81067 C 468.3280000000001 308.03367000000003 484.7850000000001 324.49067 505.0080000000001 324.49067 C 525.238 324.49067 541.6880000000001 308.03367000000003 541.6880000000001 287.81067 z M 256.8280000000001 295.41617 L 377.5880000000001 295.41617 C 381.7872000000001 295.41617 385.1896000000001 292.00997 385.1896000000001 287.81457 C 385.1896000000001 283.61537 381.7834000000001 280.21297 377.5880000000001 280.21297 L 256.8280000000001 280.21297 C 252.6288000000001 280.21297 249.2264000000001 283.61917 249.2264000000001 287.81457 C 249.2303070000001 292.00987 252.6287000000001 295.41617 256.8280000000001 295.41617 z M 256.8280000000001 334.93617 L 358.4380000000001 334.93617 C 362.6372000000001 334.93617 366.0396000000001 331.52997 366.0396000000001 327.33457 C 366.0396000000001 323.13927 362.6334000000001 319.73296999999997 358.4380000000001 319.73296999999997 L 256.8280000000001 319.73687599999994 C 252.6288000000001 319.73687599999994 249.2264000000001 323.14307599999995 249.2264000000001 327.33847599999996 C 249.2303070000001 331.52987599999994 252.6287000000001 334.93617599999993 256.8280000000001 334.93617599999993 z" stroke-linecap="round" />
</g>
</svg>