<?xml version="1.0" encoding="UTF-8" standalone="no" ?>
<!DOCTYPE svg PUBLIC "-//W3C//DTD SVG 1.1//EN" "http://www.w3.org/Graphics/SVG/1.1/DTD/svg11.dtd">
<svg xmlns="http://www.w3.org/2000/svg" xmlns:xlink="http://www.w3.org/1999/xlink" version="1.1" width="1080" height="1080" viewBox="0 0 1080 1080" xml:space="preserve">
<desc>Created with Fabric.js 5.2.4</desc>
<defs>
</defs>
<rect x="0" y="0" width="100%" height="100%" fill="transparent"></rect>
<g transform="matrix(1 0 0 1 540 540)" id="fda054f6-c9e0-451d-92f5-f8f64f084b8a"  >
<rect style="stroke: none; stroke-width: 1; stroke-dasharray: none; stroke-linecap: butt; stroke-dashoffset: 0; stroke-linejoin: miter; stroke-miterlimit: 4; fill: rgb(255,255,255); fill-rule: nonzero; opacity: 1; visibility: hidden;" vector-effect="non-scaling-stroke"  x="-540" y="-540" rx="0" ry="0" width="1080" height="1080" />
</g>
<g transform="matrix(1 0 0 1 540 540)" id="41d59f55-f2ac-429a-9eae-b4ba9fec45a3"  >
</g>
<g transform="matrix(0 0 0 0 0 0)"  >
<g style=""   >
</g>
</g>
<g transform="matrix(0 0 0 0 0 0)"  >
<g style=""   >
</g>
</g>
<g transform="matrix(10.95 0 0 10.95 516.15 540)"  >
<path style="stroke: rgb(0,0,0); stroke-width: 0; stroke-dasharray: none; stroke-linecap: butt; stroke-dashoffset: 0; stroke-linejoin: miter; stroke-miterlimit: 4; fill: rgb(0,0,0); fill-rule: nonzero; opacity: 1;" vector-effect="non-scaling-stroke"  transform=" translate(-50, -50)" d="M 50 92.875 C 26.358 92.875 7.125 73.642 7.125 50 C 7.125 26.358000000000004 26.358 7.125 50 7.125 C 73.642 7.125 92.875 26.358 92.875 50 C 92.875 73.642 73.642 92.875 50 92.875 z M 50 9.125 C 27.461 9.125 9.125 27.461 9.125 50 C 9.125 72.538 27.461 90.875 50 90.875 C 72.538 90.875 90.875 72.538 90.875 50 C 90.875 27.461 72.538 9.125 50 9.125 z" stroke-linecap="round" />
</g>
<g transform="matrix(32.68 0 0 32.68 512.34 517.56)"  >
<path style="stroke: rgb(0,0,0); stroke-width: 0; stroke-dasharray: none; stroke-linecap: butt; stroke-dashoffset: 0; stroke-linejoin: miter; stroke-miterlimit: 4; fill: rgb(0,0,0); fill-rule: nonzero; opacity: 1;" vector-effect="non-scaling-stroke"  transform=" translate(-12.03, -11.73)" d="M 12.026 2 C 6.5169999999999995 2 2.0519999999999996 6.465 2.0519999999999996 11.974 C 2.0519999999999996 16.38 4.909 20.119 8.873 21.439 C 9.372 21.529 9.552 21.222 9.552 20.958 C 9.552 20.721 9.544 20.093 9.541 19.261999999999997 C 6.766 19.863999999999997 6.18 17.923999999999996 6.18 17.923999999999996 C 5.728 16.771999999999995 5.0729999999999995 16.464999999999996 5.0729999999999995 16.464999999999996 C 4.167999999999999 15.845999999999997 5.1419999999999995 15.859999999999996 5.1419999999999995 15.859999999999996 C 6.143999999999999 15.929999999999996 6.669 16.887999999999995 6.669 16.887999999999995 C 7.558999999999999 18.411999999999995 9.004999999999999 17.971999999999994 9.571 17.716999999999995 C 9.661999999999999 17.071999999999996 9.922 16.631999999999994 10.206 16.382999999999996 C 7.991999999999999 16.131999999999994 5.664 15.275999999999996 5.664 11.452999999999996 C 5.664 10.365999999999996 6.053 9.473999999999997 6.688 8.777999999999995 C 6.587 8.524999999999995 6.242 7.509999999999995 6.787 6.137999999999995 C 6.787 6.137999999999995 7.624 5.868999999999994 9.529 7.1589999999999945 C 10.34259324452824 6.93767096906749 11.181840683348586 6.824695352303215 12.024999999999999 6.822999999999996 C 12.868181563703315 6.8243677940768785 13.707471919462312 6.93734918812136 14.521000000000006 7.158999999999996 C 16.427 5.867999999999995 17.263 6.137999999999995 17.263 6.137999999999995 C 17.808000000000003 7.5099999999999945 17.466 8.524999999999995 17.362000000000002 8.777999999999995 C 18.002000000000002 9.473999999999995 18.386000000000003 10.364999999999995 18.386000000000003 11.452999999999996 C 18.386000000000003 15.285999999999996 16.056000000000004 16.127999999999997 13.834000000000003 16.374999999999996 C 14.189000000000004 16.682999999999996 14.509000000000004 17.290999999999997 14.509000000000004 18.220999999999997 C 14.509000000000004 19.554999999999996 14.497000000000003 20.630999999999997 14.497000000000003 20.958 C 14.497000000000003 21.224999999999998 14.675000000000004 21.534999999999997 15.184000000000003 21.436999999999998 C 19.146 20.115 22 16.379 22 11.974 C 22 6.465 17.535 2 12.026 2 z" stroke-linecap="round" />
</g>
</svg>