<?xml version="1.0" encoding="UTF-8" standalone="no" ?>
<!DOCTYPE svg PUBLIC "-//W3C//DTD SVG 1.1//EN" "http://www.w3.org/Graphics/SVG/1.1/DTD/svg11.dtd">
<svg xmlns="http://www.w3.org/2000/svg" xmlns:xlink="http://www.w3.org/1999/xlink" version="1.1" width="1080" height="1080" viewBox="0 0 1080 1080" xml:space="preserve">
<desc>Created with Fabric.js 5.2.4</desc>
<defs>
</defs>
<rect x="0" y="0" width="100%" height="100%" fill="transparent"></rect>
<g transform="matrix(1 0 0 1 540 540)" id="fda054f6-c9e0-451d-92f5-f8f64f084b8a"  >
<rect style="stroke: none; stroke-width: 1; stroke-dasharray: none; stroke-linecap: butt; stroke-dashoffset: 0; stroke-linejoin: miter; stroke-miterlimit: 4; fill: rgb(255,255,255); fill-rule: nonzero; opacity: 1; visibility: hidden;" vector-effect="non-scaling-stroke"  x="-540" y="-540" rx="0" ry="0" width="1080" height="1080" />
</g>
<g transform="matrix(1 0 0 1 540 540)" id="41d59f55-f2ac-429a-9eae-b4ba9fec45a3"  >
</g>
<g transform="matrix(0 0 0 0 0 0)"  >
<g style=""   >
</g>
</g>
<g transform="matrix(0 0 0 0 0 0)"  >
<g style=""   >
</g>
</g>
<g transform="matrix(27.58 0 0 27.58 480.35 540)" id="6338eeb8-8afb-4086-a641-cfd98aaf7606"  >
<path style="stroke: rgb(0,0,0); stroke-width: 0; stroke-dasharray: none; stroke-linecap: butt; stroke-dashoffset: 0; stroke-linejoin: miter; stroke-miterlimit: 4; fill: rgb(0,0,0); fill-rule: nonzero; opacity: 1;" vector-effect="non-scaling-stroke"  transform=" translate(-12, -12)" d="M 12 2 C 17.522 2 22 6.478 22 12 C 22 17.522 17.522 22 12 22 C 6.4780000000000015 22 2 17.522 2 12 C 2 6.4780000000000015 6.478 2 12 2 z M 10.013 15.332 C 10.159 15.869000000000002 10.143 16.371000000000002 9.991999999999999 16.825 L 9.937999999999999 16.974999999999998 C 9.811674999045053 17.277368204007747 9.633307252454252 17.55524281492055 9.411 17.796 C 8.828999999999999 18.429 8.017 18.668 7.669 18.467 C 7.294 18.247999999999998 7.481 17.354999999999997 8.155999999999999 16.642 C 8.881999999999998 15.876999999999999 9.921999999999999 15.384 9.921999999999999 15.384 L 9.921999999999999 15.382 L 10.012999999999998 15.331999999999999 z M 18.271 6.281000000000001 C 17.819 4.5040000000000004 14.874 3.9190000000000005 12.086000000000002 4.91 C 10.430000000000001 5.4990000000000006 8.633000000000003 6.425 7.343000000000002 7.633 C 5.807000000000002 9.067 5.5630000000000015 10.317 5.663000000000002 10.839 C 6.0180000000000025 12.682 8.544000000000002 13.887 9.583000000000002 14.781 L 9.583000000000002 14.786000000000001 C 9.276000000000002 14.935 7.035000000000002 16.060000000000002 6.511000000000002 17.224 C 5.948000000000002 18.449 6.599000000000002 19.325 7.024000000000002 19.436 C 8.337000000000002 19.799 9.686000000000002 19.136 10.412000000000003 18.062 C 11.111000000000002 17.011000000000003 11.050000000000002 15.662 10.749000000000002 14.999 C 11.162000000000003 14.887 11.648000000000003 14.837 12.273000000000003 14.913 C 14.024000000000003 15.112 14.374000000000002 16.213 14.297000000000004 16.663 C 14.223000000000004 17.112000000000002 13.861000000000004 17.374 13.736000000000004 17.449 C 13.610000000000005 17.525000000000002 13.573000000000004 17.55 13.585000000000004 17.6 C 13.598000000000004 17.674000000000003 13.661000000000005 17.674000000000003 13.760000000000005 17.663 C 13.898000000000005 17.638 14.674000000000005 17.288 14.711000000000006 16.436 C 14.748000000000006 15.362 13.723000000000006 14.163 11.898000000000005 14.186 C 11.148000000000005 14.2 10.672000000000004 14.262 10.335000000000004 14.4 C 10.312258198237902 14.364742632479985 10.282257367520021 14.334741801762103 10.247000000000005 14.312000000000001 C 9.122000000000005 13.099 7.034000000000005 12.249 7.122000000000005 10.637 C 7.147000000000006 10.049000000000001 7.359000000000005 8.5 11.122000000000005 6.625000000000001 C 14.210000000000004 5.087000000000001 16.673000000000005 5.513000000000001 17.099000000000004 6.450000000000001 C 17.709000000000003 7.786000000000001 15.785000000000004 10.275000000000002 12.573000000000004 10.637 C 11.348000000000004 10.775 10.711000000000004 10.3 10.547000000000004 10.124 C 10.373000000000005 9.936 10.349000000000004 9.924000000000001 10.286000000000005 9.963000000000001 C 10.185000000000004 10.013000000000002 10.248000000000005 10.175 10.286000000000005 10.276000000000002 C 10.386000000000005 10.525000000000002 10.773000000000005 10.964000000000002 11.449000000000005 11.188000000000002 C 12.036000000000005 11.376000000000003 13.473000000000006 11.487000000000002 15.199000000000005 10.813000000000002 C 17.136000000000006 10.064000000000002 18.648000000000003 7.975000000000002 18.211000000000006 6.225000000000002 L 18.271000000000004 6.281000000000002 z" stroke-linecap="round" />
</g>
<g transform="matrix(7.97 0 0 7.97 484.73 540)" id="91e11dea-b5a1-4a1d-85d1-12471d309f55"  >
<path style="stroke: rgb(0,0,0); stroke-width: 0; stroke-dasharray: none; stroke-linecap: butt; stroke-dashoffset: 0; stroke-linejoin: miter; stroke-miterlimit: 4; fill: rgb(0,0,0); fill-rule: nonzero; opacity: 1;" vector-effect="non-scaling-stroke"  transform=" translate(-50, -50)" d="M 50 92.875 C 26.358 92.875 7.125 73.642 7.125 50 C 7.125 26.358000000000004 26.358 7.125 50 7.125 C 73.642 7.125 92.875 26.358 92.875 50 C 92.875 73.642 73.642 92.875 50 92.875 z M 50 9.125 C 27.461 9.125 9.125 27.461 9.125 50 C 9.125 72.538 27.461 90.875 50 90.875 C 72.538 90.875 90.875 72.538 90.875 50 C 90.875 27.461 72.538 9.125 50 9.125 z" stroke-linecap="round" />
</g>
</svg>