<?xml version="1.0" encoding="UTF-8" standalone="no" ?>
<!DOCTYPE svg PUBLIC "-//W3C//DTD SVG 1.1//EN" "http://www.w3.org/Graphics/SVG/1.1/DTD/svg11.dtd">
<svg xmlns="http://www.w3.org/2000/svg" xmlns:xlink="http://www.w3.org/1999/xlink" version="1.1" width="1080" height="1080" viewBox="0 0 1080 1080" xml:space="preserve">
<desc>Created with Fabric.js 5.2.4</desc>
<defs>
</defs>
<rect x="0" y="0" width="100%" height="100%" fill="transparent"></rect>
<g transform="matrix(1 0 0 1 540 540)" id="fda054f6-c9e0-451d-92f5-f8f64f084b8a"  >
<rect style="stroke: none; stroke-width: 1; stroke-dasharray: none; stroke-linecap: butt; stroke-dashoffset: 0; stroke-linejoin: miter; stroke-miterlimit: 4; fill: rgb(255,255,255); fill-rule: nonzero; opacity: 1; visibility: hidden;" vector-effect="non-scaling-stroke"  x="-540" y="-540" rx="0" ry="0" width="1080" height="1080" />
</g>
<g transform="matrix(1 0 0 1 540 540)" id="41d59f55-f2ac-429a-9eae-b4ba9fec45a3"  >
</g>
<g transform="matrix(0 0 0 0 0 0)"  >
<g style=""   >
</g>
</g>
<g transform="matrix(0 0 0 0 0 0)"  >
<g style=""   >
</g>
</g>
<g transform="matrix(8.15 0 0 8.15 544.04 545.43)" id="520cb215-d32c-4e7b-813c-b8a762c82909"  >
<path style="stroke: rgb(0,0,0); stroke-width: 0; stroke-dasharray: none; stroke-linecap: butt; stroke-dashoffset: 0; stroke-linejoin: miter; stroke-miterlimit: 4; fill: rgb(0,0,0); fill-rule: nonzero; opacity: 1;" vector-effect="non-scaling-stroke"  transform=" translate(-50, -50)" d="M 50 92.875 C 26.358 92.875 7.125 73.642 7.125 50 C 7.125 26.358000000000004 26.358 7.125 50 7.125 C 73.642 7.125 92.875 26.358 92.875 50 C 92.875 73.642 73.642 92.875 50 92.875 z M 50 9.125 C 27.461 9.125 9.125 27.461 9.125 50 C 9.125 72.538 27.461 90.875 50 90.875 C 72.538 90.875 90.875 72.538 90.875 50 C 90.875 27.461 72.538 9.125 50 9.125 z" stroke-linecap="round" />
</g>
<g transform="matrix(29.31 0 0 29.31 540 540)"  >
<g style="" vector-effect="non-scaling-stroke"   >
		<g transform="matrix(1 0 0 1 0 0)"  >
<circle style="stroke: none; stroke-width: 1; stroke-dasharray: none; stroke-linecap: butt; stroke-dashoffset: 0; stroke-linejoin: miter; stroke-miterlimit: 4; fill: rgb(0,0,0); fill-rule: nonzero; opacity: 1;" vector-effect="non-scaling-stroke"  cx="0" cy="0" r="1.785" />
</g>
		<g transform="matrix(1 0 0 1 0 0)"  >
<path style="stroke: none; stroke-width: 1; stroke-dasharray: none; stroke-linecap: butt; stroke-dashoffset: 0; stroke-linejoin: miter; stroke-miterlimit: 4; fill: rgb(0,0,0); fill-rule: nonzero; opacity: 1;" vector-effect="non-scaling-stroke"  transform=" translate(-12, -11.24)" d="M 7.002 14.794 L 6.606999999999999 14.693 C 3.672999999999999 13.952 1.9899999999999993 12.692 1.9899999999999993 11.241 C 1.9899999999999993 9.789 3.6739999999999995 8.53 6.606999999999999 7.789 L 7.001999999999999 7.689 L 7.112999999999999 8.08 C 7.409541404258441 9.10369692948684 7.789479715525426 10.101369449301462 8.248999999999999 11.062999999999992 L 8.334 11.241000000000001 L 8.248999999999999 11.419000000000002 C 7.788999999999999 12.382000000000001 7.407999999999999 13.380000000000003 7.112999999999999 14.404000000000002 L 7.001999999999999 14.794000000000002 z M 6.425 8.699000000000002 C 4.196 9.327000000000002 2.827 10.285000000000002 2.827 11.241000000000001 C 2.827 12.195000000000002 4.195 13.154000000000002 6.425 13.781000000000002 C 6.6979999999999995 12.913000000000002 7.028 12.064000000000002 7.41 11.241000000000003 C 7.025232450753073 10.416629293787025 6.696161348288737 9.567391991792771 6.425000000000001 8.699000000000007 z M 16.997 14.794 L 16.887 14.402000000000001 C 16.58967446502703 13.37810331541786 16.209416376936677 12.380134859075188 15.75 11.417999999999996 L 15.665 11.241000000000001 L 15.75 11.062000000000001 C 16.21 10.101 16.589 9.102 16.887 8.078000000000001 L 16.997 7.6880000000000015 L 17.392 7.788000000000001 C 20.326999999999998 8.529000000000002 22.009 9.788 22.009 11.241000000000001 C 22.009 12.693000000000001 20.326 13.952000000000002 17.392 14.693000000000001 L 16.997 14.794000000000002 z M 16.587 11.241 C 16.987 12.107 17.32 12.959 17.573999999999998 13.780999999999999 C 19.804 13.153999999999998 21.173 12.194999999999999 21.173 11.241 C 21.173 10.285 19.805 9.328 17.573999999999998 8.699 C 17.301276133045096 9.567122430727068 16.971559726592805 10.416300855450196 16.587 11.240999999999998 z" stroke-linecap="round" />
</g>
		<g transform="matrix(1 0 0 1 0 0)"  >
<path style="stroke: none; stroke-width: 1; stroke-dasharray: none; stroke-linecap: butt; stroke-dashoffset: 0; stroke-linejoin: miter; stroke-miterlimit: 4; fill: rgb(0,0,0); fill-rule: nonzero; opacity: 1;" vector-effect="non-scaling-stroke"  transform=" translate(-12, -11.24)" d="M 6.419 8.695 L 6.308999999999999 8.305 C 5.483 5.397 5.733 3.314 6.9959999999999996 2.588 C 8.231 1.8730000000000002 10.218 2.718 12.299 4.853 L 12.583 5.145 L 12.299 5.436 C 11.559875015422918 6.204687067992474 10.884326097959573 7.032067276806486 10.278999999999998 7.909999999999997 L 10.166 8.072000000000001 L 9.97 8.088000000000001 C 8.905583768214237 8.171598616269376 7.849753792335083 8.34182904316912 6.8130000000000015 8.597000000000001 L 6.4190000000000005 8.695000000000002 z M 8.001 3.1660000000000004 C 7.776999999999999 3.1660000000000004 7.579 3.2150000000000003 7.411999999999999 3.3110000000000004 C 6.583999999999999 3.7880000000000003 6.437999999999999 5.449 7.007999999999999 7.691000000000001 C 7.898999999999999 7.494000000000001 8.797999999999998 7.353000000000001 9.703999999999999 7.274000000000001 C 10.22851514323001 6.530053795138722 10.8007154290871 5.820899558784605 11.416999999999998 5.151000000000002 C 10.113999999999997 3.884000000000001 8.883999999999999 3.1660000000000004 8.000999999999998 3.1660000000000004 z M 15.998 20.150000000000002 C 14.809999999999999 20.150000000000002 13.283999999999999 19.254 11.7 17.628000000000004 L 11.417 17.337000000000003 L 11.7 17.047000000000004 C 12.43924147508014 16.27707822050707 13.115104511560745 15.448719615181762 13.721000000000002 14.570000000000004 L 13.833 14.410000000000004 L 14.027000000000001 14.391000000000004 C 15.091788326772571 14.308882400643947 16.148016876128736 14.13931055943952 17.185000000000002 13.884000000000002 L 17.580000000000002 13.784000000000004 L 17.691000000000003 14.175000000000004 C 18.513 17.081000000000003 18.264000000000003 19.167000000000005 17.003000000000004 19.893000000000004 C 16.696828959215452 20.066548922586566 16.34989799338724 20.155266592455074 15.998000000000005 20.150000000000006 z M 12.582999999999998 17.330000000000002 C 13.884999999999998 18.597 15.115999999999998 19.316000000000003 15.997999999999998 19.316000000000003 C 16.223 19.316000000000003 16.420999999999996 19.266000000000002 16.586999999999996 19.171000000000003 C 17.415999999999997 18.693 17.562999999999995 17.029000000000003 16.990999999999996 14.787000000000003 C 16.100999999999996 14.985000000000003 15.200999999999997 15.127000000000002 14.292999999999996 15.206000000000003 C 13.770709749530214 15.951120441780576 13.199449534518667 16.66068576147913 12.582999999999997 17.330000000000002 z" stroke-linecap="round" />
</g>
		<g transform="matrix(1 0 0 1 0 0)"  >
<path style="stroke: none; stroke-width: 1; stroke-dasharray: none; stroke-linecap: butt; stroke-dashoffset: 0; stroke-linejoin: miter; stroke-miterlimit: 4; fill: rgb(0,0,0); fill-rule: nonzero; opacity: 1;" vector-effect="non-scaling-stroke"  transform=" translate(-12, -11.24)" d="M 17.58 8.695 L 17.185 8.596 C 16.148069854007286 8.34003305798078 15.09184206286181 8.169792416532697 14.02699999999999 8.087 L 13.832999999999998 8.07 L 13.720999999999998 7.908 C 13.115947398727558 7.02958482256587 12.440024996929777 6.202156805718909 11.700000000000003 5.4340000000000055 L 11.417 5.143 L 11.7 4.853 C 13.78 2.719 15.765999999999998 1.8739999999999997 17.003 2.5879999999999996 C 18.265 3.3149999999999995 18.516 5.398 17.691 8.305 L 17.58 8.695 z M 14.293 7.274 C 15.247 7.359 16.151 7.502 16.991 7.691 C 17.562 5.449 17.416 3.788 16.587 3.3099999999999996 C 15.763 2.8329999999999997 14.212 3.5629999999999997 12.583 5.151 C 13.199 5.821 13.771 6.529 14.293 7.274 z M 8.001 20.15 C 7.649130608493667 20.155025054506744 7.302261900492002 20.06632330529637 6.9959999999999996 19.892999999999997 C 5.733 19.166999999999998 5.483 17.081999999999997 6.308 14.174999999999997 L 6.4159999999999995 13.783999999999997 L 6.811 13.883999999999997 C 7.775 14.126999999999997 8.837 14.297999999999996 9.969 14.390999999999996 L 10.163 14.409999999999997 L 10.276 14.569999999999997 C 10.879999999999999 15.447999999999997 11.556 16.276999999999997 12.296 17.046999999999997 L 12.58 17.336999999999996 L 12.296 17.627999999999997 C 10.713 19.254999999999995 9.187 20.149999999999995 8.001 20.149999999999995 z M 7.007999999999999 14.787999999999998 C 6.437999999999999 17.029999999999998 6.583999999999999 18.694 7.411999999999999 19.171999999999997 C 8.236999999999998 19.641999999999996 9.783 18.916999999999998 11.416999999999998 17.33 C 10.800952342672787 16.659896294707004 10.2287647498303 15.950757789392002 9.703999999999994 15.206999999999995 C 8.797094001443881 15.126797265209662 7.89647004961975 14.986826406228097 7.007999999999992 14.788 z" stroke-linecap="round" />
</g>
		<g transform="matrix(1 0 0 1 0 0)"  >
<path style="stroke: none; stroke-width: 1; stroke-dasharray: none; stroke-linecap: butt; stroke-dashoffset: 0; stroke-linejoin: miter; stroke-miterlimit: 4; fill: rgb(0,0,0); fill-rule: nonzero; opacity: 1;" vector-effect="non-scaling-stroke"  transform=" translate(-12, -11.24)" d="M 12 15.313 C 11.313 15.313 10.608 15.284 9.9 15.225000000000001 L 9.704 15.208000000000002 L 9.591000000000001 15.046000000000001 C 9.191753625000874 14.47189954401418 8.816107608933883 13.881741637777495 8.465000000000003 13.277000000000003 C 8.116488554241034 12.670630687850867 7.7925589784819 12.05046067617605 7.494000000000009 11.417999999999996 L 7.410000000000002 11.241000000000001 L 7.4940000000000015 11.062000000000001 C 7.793000000000002 10.430000000000001 8.116000000000001 9.81 8.465000000000002 9.204 C 8.812000000000001 8.608 9.191000000000003 8.012 9.591000000000001 7.434000000000001 L 9.704 7.274000000000001 L 9.9 7.256000000000001 C 11.296887674365163 7.1389992800683615 12.701112325634833 7.138999280068362 14.097999999999995 7.256000000000001 L 14.292000000000002 7.275000000000001 L 14.405000000000001 7.435000000000001 C 15.2047954090723 8.58375235558336 15.907237490837947 9.797304675890874 16.505000000000003 11.06300000000001 L 16.588 11.242000000000003 L 16.505000000000003 11.419000000000002 C 15.908891208056737 12.685561812623181 15.206370447126776 13.899250060553607 14.405000000000001 15.047000000000002 L 14.292000000000003 15.209000000000003 L 14.098000000000003 15.226000000000003 C 13.392000000000003 15.283000000000003 12.686000000000003 15.313000000000002 12.000000000000004 15.313000000000002 z M 10.166 14.409 C 11.401 14.502 12.599 14.502 13.833 14.409 C 14.52188863696301 13.400209926283681 15.13426751981168 12.34124906336634 15.665000000000001 11.24100000000001 C 15.136141490727153 10.139759936869304 14.52368227521437 9.080660158078643 13.832999999999993 8.072999999999995 C 12.612473904237579 7.978999005873731 11.386526095762413 7.97899900587373 10.16599999999999 8.073 C 9.474739567492568 9.080295480474552 8.862254056302753 10.139440731265678 8.334 11.241000000000007 C 8.865877969903277 12.340642277085628 9.478208636261574 13.399519761268534 10.166 14.408999999999999 z" stroke-linecap="round" />
</g>
</g>
</g>
</svg>