<?xml version="1.0" encoding="UTF-8" standalone="no" ?>
<!DOCTYPE svg PUBLIC "-//W3C//DTD SVG 1.1//EN" "http://www.w3.org/Graphics/SVG/1.1/DTD/svg11.dtd">
<svg xmlns="http://www.w3.org/2000/svg" xmlns:xlink="http://www.w3.org/1999/xlink" version="1.1" width="1080" height="1080" viewBox="0 0 1080 1080" xml:space="preserve">
<desc>Created with Fabric.js 5.2.4</desc>
<defs>
</defs>
<rect x="0" y="0" width="100%" height="100%" fill="transparent"></rect>
<g transform="matrix(1 0 0 1 540 540)" id="248ed502-b3ec-4df9-8d8c-a63c82ebfe80"  >
</g>
<g transform="matrix(1 0 0 1 540 540)" id="36830fd6-b568-4034-b539-c1e96a041b11"  >
<rect style="stroke: none; stroke-width: 1; stroke-dasharray: none; stroke-linecap: butt; stroke-dashoffset: 0; stroke-linejoin: miter; stroke-miterlimit: 4; fill: rgb(0,0,0); fill-rule: nonzero; opacity: 1; visibility: hidden;" vector-effect="non-scaling-stroke"  x="-540" y="-540" rx="0" ry="0" width="1080" height="1080" />
</g>
<g transform="matrix(2 0 0 2 613.86 695.7)"  >
<path style="stroke: none; stroke-width: 1; stroke-dasharray: none; stroke-linecap: butt; stroke-dashoffset: 0; stroke-linejoin: miter; stroke-miterlimit: 4; fill: rgb(255,255,255); fill-rule: nonzero; opacity: 1;" vector-effect="non-scaling-stroke"  transform=" translate(-388.74, -346.12)" d="M 527.57 220.36 C 526.72234 217.8717 524.0153 216.54360000000003 521.5231 217.39120000000003 C 519.0348 218.24276000000003 517.7067 220.94980000000004 518.5543 223.44200000000004 C 529.5583 258.30100000000004 529.5583 295.708 518.5543 330.562 C 507.73830000000004 364.726 486.5663 394.683 457.9723 416.285 C 429.3783 437.887 394.7773 450.062 358.9563 451.13300000000004 C 323.7803 452.1564 289.1553 442.25410000000005 259.8353 422.797 L 259.33139 422.797 C 252.79229 419.3322 244.68339 421.5548 240.82739 427.87510000000003 C 236.97189 434.1915 238.69849000000002 442.41810000000004 244.77269 446.6521 C 279.35069 467.6211 319.56169 477.3981 359.90269 474.6521 C 399.77369 471.949 437.81669 456.91810000000004 468.77269 431.64410000000004 C 499.21369 406.86310000000003 521.2176900000001 373.24910000000006 531.74969 335.43710000000004 C 542.2806899999999 297.62110000000007 540.81999 257.47210000000007 527.56999 220.52710000000005 z" stroke-linecap="round" />
</g>
<g transform="matrix(0.09 0 0 0.09 479.93 698.01)"  >
<g style="" vector-effect="non-scaling-stroke"   >
		<g transform="matrix(1.33 0 0 1.33 17.2 35.46)"  >
<path style="stroke: none; stroke-width: 1; stroke-dasharray: none; stroke-linecap: butt; stroke-dashoffset: 0; stroke-linejoin: miter; stroke-miterlimit: 4; fill: rgb(255,255,255); fill-rule: nonzero; opacity: 1;" vector-effect="non-scaling-stroke"  transform=" translate(-613.65, -627.29)" d="M 863.75 627.54 L 790.66 619.3642 C 789.6560999999999 597.7511999999999 785.0505999999999 576.4542 777.0229999999999 556.3602 L 802.386 536.9972 C 813.9839999999999 528.0324 819.913 513.5672000000001 817.948 499.04420000000005 C 815.9792 484.5212 806.417 472.14920000000006 792.8539999999999 466.5912000000001 C 779.295 461.03260000000006 763.799 463.1303000000001 752.2059999999999 472.0912000000001 L 730.9329999999999 488.72420000000005 C 714.7299999999999 473.36120000000005 696.0029999999999 460.9082000000001 675.5699999999999 451.90420000000006 L 681.5699999999999 400.08820000000003 C 683.2262 385.5722 677.0114 371.27220000000005 665.265 362.58020000000005 C 653.5186 353.88820000000004 638.031 352.11920000000003 624.6279999999999 357.9474000000001 C 611.2259999999999 363.7716000000001 601.9519999999999 376.3024000000001 600.2959999999999 390.8224000000001 L 594.8429 436.6314000000001 C 564.5889 437.3696800000001 534.9479 445.3189000000001 508.3859 459.8154000000001 L 453.83889999999997 396.0034000000001 L 453.84280599999994 396.0034000000001 C 446.75690599999996 387.7495000000001 436.67880599999995 382.6484000000001 425.83080599999994 381.8274000000001 C 414.9828059999999 381.0031800000001 404.25280599999996 384.52660000000014 396.0068059999999 391.61650000000014 C 387.7568059999999 398.71030000000013 382.66280599999993 408.78850000000017 381.8468059999999 419.6365000000001 C 381.0343059999999 430.48450000000014 384.5616059999999 441.2145000000001 391.6593059999999 449.4565000000001 L 446.74930599999993 513.8155000000002 C 432.56130599999995 532.9675000000002 422.1083059999999 554.6245000000001 415.93330599999996 577.6435000000001 L 372.843306 572.9951000000001 C 358.323306 571.3389000000001 344.023306 577.5576000000001 335.32730599999996 589.3041000000001 C 326.632006 601.0501 324.862306 616.5421000000001 330.69060599999995 629.9451 C 336.51480599999996 643.3471000000001 349.0496059999999 652.6251 363.56960599999996 654.2811 L 412.11660599999993 659.7264 L 412.11660599999993 659.730306 C 415.56970599999994 680.250306 422.38960599999996 700.062306 432.29660599999994 718.3633060000001 L 397.65960599999994 744.8243060000001 C 386.11660599999993 753.8048060000001 380.2256059999999 768.254306 382.20260599999995 782.7463060000001 C 384.17920599999997 797.2383060000001 393.7226059999999 809.5823060000001 407.24960599999997 815.1443060000001 C 420.77660599999996 820.7029060000001 436.24560599999995 818.6404060000001 447.84360599999997 809.7302060000002 L 486.027606 780.2732060000002 L 486.0237 780.2732060000002 C 505.53970000000004 794.6442060000002 527.5467 805.2772060000002 550.9337 811.6322060000002 L 545.7501000000001 854.4602060000002 C 544.4923000000001 865.2452060000002 547.5821000000001 876.0852060000002 554.3399000000001 884.5812060000002 C 561.0938000000001 893.0812060000002 570.9609 898.5342060000002 581.7499 899.7372060000001 C 583.2851 899.9676760000001 584.8358000000001 900.0536160000001 586.3866 900.0028260000001 C 596.4296 899.9911070000002 606.1206000000001 896.2919260000001 613.6136 889.6008260000001 C 621.1058 882.9133260000001 625.8796 873.7058260000001 627.0236 863.7298260000001 L 632.7502 815.1908260000001 C 652.3632 811.7963260000001 671.3202 805.3549260000001 688.9341999999999 796.0928260000002 L 718.9341999999999 831.2768260000001 L 718.9341999999999 831.2729190000001 C 726.0552999999999 839.4682190000001 736.1221999999999 844.5229190000001 746.9461999999999 845.3389190000001 C 757.7701999999998 846.1553290000002 768.4811999999998 842.6709190000001 776.7511999999998 835.6436190000002 C 784.9933999999998 828.5498190000002 790.0831999999998 818.4756190000002 790.9031999999999 807.6356190000001 C 791.7196099999999 796.7916190000001 788.2000999999999 786.0696190000001 781.1179999999998 777.8196190000001 L 751.3909999999998 743.1826190000002 L 751.3870939999998 743.1826190000002 C 761.5780939999999 729.9636190000001 770.0120939999998 715.4796190000002 776.4810939999999 700.0926190000001 L 854.4810939999999 708.8270190000002 C 856.0162939999999 709.0418590000002 857.5669939999999 709.1277990000002 859.1177939999999 709.0926390000002 C 873.1727939999998 709.0848260000001 886.2427939999999 701.8582390000001 893.7227939999999 689.9596390000002 C 901.207194 678.0576390000001 902.0547939999999 663.1476390000001 895.9688939999999 650.4756390000001 C 889.8829939999998 637.8036390000001 877.7188939999999 629.1436390000001 863.7498939999998 627.5416390000001 z M 545.48 627.27438 C 531.011 627.27438 517.14 621.52828 506.91 611.29738 C 496.68 601.06738 490.93300000000005 587.19538 490.93300000000005 572.7273799999999 C 490.93300000000005 558.2623799999999 496.67910000000006 544.3873799999999 506.91 534.1573799999999 C 517.14 523.9303799999999 531.0120000000001 518.1843799999999 545.48 518.1843799999999 C 559.945 518.1843799999999 573.82 523.9304799999999 584.0500000000001 534.1573799999999 C 594.277 544.3873799999999 600.023 558.2623799999999 600.023 572.7273799999999 C 599.983937 587.1803799999999 594.2222 601.0323799999999 584.003 611.25038 C 573.7800000000001 621.46938 559.933 627.23038 545.48 627.27338 z M 640.933 736.36438 C 630.085 736.36438 619.679 732.05578 612.007 724.38438 C 604.3350999999999 716.7124799999999 600.0229999999999 706.30638 600.0229999999999 695.45438 C 600.0229999999999 684.6063800000001 604.3354999999999 674.20038 612.007 666.52838 C 619.6789 658.8564799999999 630.0849999999999 654.54838 640.933 654.54838 C 651.785 654.54838 662.187 658.8569799999999 669.859 666.52838 C 677.5348 674.20028 681.8430000000001 684.60638 681.8430000000001 695.45438 C 681.8586250000001 706.30938 677.5539000000001 716.72438 669.878 724.3993800000001 C 662.2022000000001 732.07518 651.788 736.3793800000001 640.933 736.3643800000001 z" stroke-linecap="round" />
</g>
		<g transform="matrix(1.33 0 0 1.33 -2 -2)"  >
<path style="stroke: none; stroke-width: 1; stroke-dasharray: none; stroke-linecap: butt; stroke-dashoffset: 0; stroke-linejoin: miter; stroke-miterlimit: 4; fill: rgb(255,255,255); fill-rule: nonzero; opacity: 1;" vector-effect="non-scaling-stroke"  transform=" translate(-600.04, -600)" d="M 1036.4 0 L 163.67000000000007 0 C 120.28300000000007 0.046875 78.69000000000007 17.305 48.010000000000076 47.98 C 17.330000000000084 78.655 0.07600000000007867 120.25 0.030000000000079297 163.64 L 0.030000000000079297 1036.37 C 0.0768750000000793 1079.7569999999998 17.33500000000008 1121.35 48.010000000000076 1152.03 C 78.68500000000007 1182.71 120.28000000000007 1199.964 163.67000000000007 1200.01 L 1036.4 1200.01 C 1079.787 1199.963125 1121.38 1182.705 1152.0600000000002 1152.03 C 1182.7400000000002 1121.355 1199.9940000000001 1079.76 1200.0400000000002 1036.37 L 1200.0400000000002 163.63999999999987 C 1199.9931250000002 120.25299999999987 1182.7350000000001 78.65999999999987 1152.0600000000002 47.979999999999876 C 1121.3850000000002 17.299999999999883 1079.7900000000002 0.04599999999987858 1036.4 -1.2079226507921703e-13 z M 1090.9470000000001 1036.4 C 1090.9274690000002 1050.861 1085.1736 1064.7240000000002 1074.951 1074.951 C 1064.724 1085.174 1050.861 1090.928 1036.4 1090.9470000000001 L 163.67000000000007 1090.9470000000001 C 149.20900000000006 1090.9274690000002 135.34600000000006 1085.1736 125.11900000000007 1074.951 C 114.89600000000007 1064.724 109.14200000000007 1050.861 109.12300000000008 1036.4 L 109.12300000000008 163.67000000000007 C 109.14253100000008 149.20900000000006 114.89640000000007 135.34600000000006 125.11900000000007 125.11900000000007 C 135.34600000000006 114.89600000000007 149.20900000000006 109.14200000000007 163.67000000000007 109.12300000000008 L 1036.4 109.12300000000008 C 1050.861 109.14253100000008 1064.7240000000002 114.89640000000007 1074.951 125.11900000000007 C 1085.174 135.34600000000006 1090.928 149.20900000000006 1090.9470000000001 163.67000000000007 z" stroke-linecap="round" />
</g>
</g>
</g>
<g transform="matrix(2.12 0 0 2.12 444.98 403.63)"  >
<path style="stroke: none; stroke-width: 1; stroke-dasharray: none; stroke-linecap: butt; stroke-dashoffset: 0; stroke-linejoin: miter; stroke-miterlimit: 4; fill: rgb(255,255,255); fill-rule: nonzero; opacity: 1;" vector-effect="non-scaling-stroke"  transform=" translate(-311.26, -214.15)" d="M 181.61 229.6 C 192.42600000000002 195.43599999999998 213.598 165.47899999999998 242.192 143.877 C 270.786 122.275 305.387 110.10000000000001 341.208 109.02900000000001 C 376.31 107.99380000000001 410.86800000000005 117.8298 440.16100000000006 137.197 L 440.6649100000001 137.47825 C 447.2040100000001 140.94305 455.3129100000001 138.71655 459.1689100000001 132.40015 C 463.0249100000001 126.08374999999998 461.2978100000001 117.85315 455.2236100000001 113.62315 C 420.64561000000015 92.65414999999999 380.43461000000013 82.87715 340.0936100000001 85.62315 C 300.2026100000001 88.37315 262.15961000000016 103.46315 231.22361000000012 128.79915 C 200.78261000000012 153.58015 178.77861000000013 187.19415 168.24661000000012 225.00615 C 157.7146100000001 262.81814999999995 159.17631000000011 302.97114999999997 172.42631000000011 339.91615 C 173.2739700000001 342.40445 175.9810100000001 343.73255 178.4732100000001 342.88095000000004 C 180.96151000000012 342.03329 182.2896100000001 339.32235000000003 181.4420100000001 336.83405000000005 C 170.46901000000008 301.92005000000006 170.5280100000001 264.47505000000007 181.6099800000001 229.59405000000004 z" stroke-linecap="round" />
</g>
<g transform="matrix(0.27 0 0 0.27 467.57 373.68)"  >
<g style="" vector-effect="non-scaling-stroke"   >
		<g transform="matrix(1 0 0 1 0 0)"  >
<rect style="stroke: none; stroke-width: 1; stroke-dasharray: none; stroke-linecap: butt; stroke-dashoffset: 0; stroke-linejoin: miter; stroke-miterlimit: 4; fill: rgb(255,255,255); fill-rule: nonzero; opacity: 1; visibility: hidden;" vector-effect="non-scaling-stroke"  x="-540" y="-540" rx="0" ry="0" width="1080" height="1080" />
</g>
		<g transform="matrix(1.33 0 0 1.33 -16.34 32.65)"  >
<path style="stroke: none; stroke-width: 1; stroke-dasharray: none; stroke-linecap: butt; stroke-dashoffset: 0; stroke-linejoin: miter; stroke-miterlimit: 4; fill: rgb(255,255,255); fill-rule: nonzero; opacity: 1;" vector-effect="non-scaling-stroke"  transform=" translate(-298.81, -394.88)" d="M 330.16 380.26 C 341.17600000000004 371.1662 348.20700000000005 357.405 348.20700000000005 342.041 C 348.20700000000005 314.717 325.9800000000001 292.494 298.6600000000001 292.494 C 271.3440000000001 292.494 249.11700000000008 314.697 249.11700000000008 341.994 C 249.11700000000008 357.41600000000005 256.1912000000001 371.21700000000004 267.2540000000001 380.322 C 241.29700000000008 386.3493 221.87900000000008 409.611 221.87900000000008 437.377 L 221.87900000000008 497.26800000000003 L 375.7490000000001 497.26800000000003 L 375.7490000000001 437.37 C 375.7490000000001 409.526 356.2220000000001 386.21000000000004 330.1590000000001 380.261 z M 298.66 310.479 C 316.06600000000003 310.479 330.22200000000004 324.635 330.22200000000004 342.041 C 330.22200000000004 359.447 316.06600000000003 373.603 298.66 373.603 C 281.262 373.603 267.105 359.423 267.105 341.986 C 267.097187 324.611 281.25300000000004 310.478 298.66 310.478 z M 357.762 479.279 L 239.862 479.279 L 239.862 437.369 C 239.862 414.963 258.089 396.73600000000005 280.495 396.73600000000005 L 317.132 396.73600000000005 C 339.538 396.73600000000005 357.765 414.963 357.765 437.369 L 357.765 479.279 z" stroke-linecap="round" />
</g>
		<g transform="matrix(1.33 0 0 1.33 51.91 -120.52)"  >
<path style="stroke: none; stroke-width: 1; stroke-dasharray: none; stroke-linecap: butt; stroke-dashoffset: 0; stroke-linejoin: miter; stroke-miterlimit: 4; fill: rgb(255,255,255); fill-rule: nonzero; opacity: 1;" vector-effect="non-scaling-stroke"  transform=" translate(-350, -280.01)" d="M 506.01 380.26 C 517.026 371.1662 524.053 357.412 524.053 342.041 C 524.053 330.881 520.2991 320.6 514.045 312.307 L 514.045 289.15500000000003 C 514.045 264.206 496.93199999999996 243.23300000000003 473.842 237.21000000000004 C 483.24039999999997 228.86230000000003 489.20099999999996 216.71800000000005 489.20099999999996 203.19000000000003 C 489.20099999999996 178.06100000000004 468.76 157.62400000000002 443.635 157.62400000000002 C 442.6233 157.62400000000002 441.6311 157.70993800000002 440.6389 157.77634000000003 L 440.6389 62.73734000000003 L 148.39889999999997 62.73734000000003 L 148.39889999999997 283.52734000000004 L 358.36889999999994 283.52734000000004 C 362.20089999999993 288.87114 367.45089999999993 293.04684000000003 373.51689999999996 295.52334 L 373.51689999999996 335.05834000000004 L 391.50489999999996 335.05834000000004 L 391.52052599999996 281.15234000000004 L 383.98932599999995 279.91014 C 379.2745259999999 279.13280000000003 375.24322599999994 276.55074 372.63432599999993 272.65234000000004 L 332.9233259999999 213.18734000000003 L 338.4467259999999 209.47644000000003 L 372.6347259999999 260.66044 C 377.7402259999999 268.28934 388.02972599999987 270.46514 395.7757259999999 265.62924 L 408.6777259999999 258.68394 C 409.8808259999999 257.94566000000003 412.9511259999999 256.42614000000003 412.9433259999999 256.42224 C 417.5019259999999 254.41834 422.3222259999999 253.40274 427.2633259999999 253.40274 L 460.3023259999999 253.40274 C 480.0213259999999 253.40274 496.0643259999999 269.44574 496.0643259999999 289.16074 L 496.0643259999999 297.50054 C 489.5409259999999 294.33254 482.2443259999999 292.50054 474.51732599999985 292.50054 C 447.19332599999984 292.50054 424.9703259999999 314.70354 424.9703259999999 342.00054 C 424.9703259999999 357.42254 432.0445259999999 371.22354 443.1073259999999 380.32854 C 417.1503259999999 386.35584 397.7323259999999 409.61753999999996 397.7323259999999 437.38354 L 397.7323259999999 497.27454 L 551.602326 497.266727 L 551.602326 437.368727 C 551.602326 409.524727 532.0753259999999 386.20872699999995 506.0123259999999 380.259727 z M 471.217 203.19 C 471.217 218.393 458.846 230.764 443.639 230.764 C 428.43600000000004 230.764 416.065 218.377 416.065 203.139 C 416.065 187.959 428.436 175.604 443.639 175.604 C 458.846 175.607906 471.217 187.979 471.217 203.19 z M 405.287 240.143 C 405.287 240.143 400.93539999999996 242.3266 399.7206 243.0883 L 387.0646 249.8852 L 343.3766 184.4792 L 308.0056 208.2722 L 346.2516 265.5382 L 166.3816 265.5382 L 166.3816 80.71820000000002 L 422.6516 80.71820000000002 L 422.6516 162.78020000000004 C 408.0696 170.37790000000004 398.0736 185.60420000000005 398.0736 203.14320000000004 C 398.0736 216.74120000000005 404.0814 228.93220000000002 413.5426 237.29920000000004 C 410.7809 238.03357000000005 408.0309 238.92810000000003 405.2887 240.13900000000004 z M 474.51 310.479 C 491.908 310.479 506.065 324.635 506.065 342.041 C 506.065 359.447 491.909 373.603 474.51 373.603 C 457.104 373.603 442.948 359.423 442.948 341.986 C 442.948 324.611 457.104 310.478 474.51 310.478 z M 533.612 479.279 L 415.712 479.279 L 415.712 437.369 C 415.712 414.963 433.93899999999996 396.73600000000005 456.34499999999997 396.73600000000005 L 492.986 396.73600000000005 C 515.3919999999999 396.73600000000005 533.619 414.963 533.619 437.369 L 533.619 479.279 z" stroke-linecap="round" />
</g>
		<g transform="matrix(1.33 0 0 1.33 -103.02 -300.95)"  >
<path style="stroke: none; stroke-width: 1; stroke-dasharray: none; stroke-linecap: butt; stroke-dashoffset: 0; stroke-linejoin: miter; stroke-miterlimit: 4; fill: rgb(255,255,255); fill-rule: nonzero; opacity: 1;" vector-effect="non-scaling-stroke"  transform=" translate(-233.81, -144.68)" d="M 264.16 92.281 L 203.44100000000003 92.281 C 189.11700000000002 92.281 177.45700000000002 103.941 177.45700000000002 118.269 L 177.45700000000002 171.09300000000002 C 177.45700000000002 185.425 189.11700000000002 197.08100000000002 203.44100000000003 197.08100000000002 L 264.168 197.08100000000002 C 278.5 197.08100000000002 290.156 185.42100000000002 290.156 171.09300000000002 L 290.156 118.27300000000002 C 290.15209400000003 103.94100000000003 278.496 92.28100000000002 264.16 92.28100000000002 z M 272.1678 171.101 C 272.1678 175.5151 268.578 179.1049 264.1639 179.1049 L 203.4409 179.1049 C 199.0347 179.1049 195.4448 175.5151 195.4448 171.101 L 195.4448 118.273 C 195.4448 113.85889999999999 199.03459999999998 110.2691 203.4409 110.2691 L 264.1679 110.2691 C 268.582 110.2691 272.17179999999996 113.85889999999999 272.17179999999996 118.273 z" stroke-linecap="round" />
</g>
		<g transform="matrix(1.33 0 0 1.33 70.03 -343.26)"  >
<path style="stroke: none; stroke-width: 1; stroke-dasharray: none; stroke-linecap: butt; stroke-dashoffset: 0; stroke-linejoin: miter; stroke-miterlimit: 4; fill: rgb(255,255,255); fill-rule: nonzero; opacity: 1;" vector-effect="non-scaling-stroke"  transform=" translate(-363.58, -112.94)" d="M 320.46 103.95 L 406.71 103.95 L 406.71 121.938 L 320.46 121.938 z" stroke-linecap="round" />
</g>
		<g transform="matrix(1.33 0 0 1.33 45.94 -295.74)"  >
<path style="stroke: none; stroke-width: 1; stroke-dasharray: none; stroke-linecap: butt; stroke-dashoffset: 0; stroke-linejoin: miter; stroke-miterlimit: 4; fill: rgb(255,255,255); fill-rule: nonzero; opacity: 1;" vector-effect="non-scaling-stroke"  transform=" translate(-345.52, -148.58)" d="M 320.46 139.59 L 370.58099999999996 139.59 L 370.58099999999996 157.578 L 320.46 157.578 z" stroke-linecap="round" />
</g>
</g>
</g>
<g transform="matrix(0.28 0 0 0.28 663.85 636.66)"  >
<g style="" vector-effect="non-scaling-stroke"   >
		<g transform="matrix(1 0 0 1 0 0)"  >
<rect style="stroke: none; stroke-width: 1; stroke-dasharray: none; stroke-linecap: butt; stroke-dashoffset: 0; stroke-linejoin: miter; stroke-miterlimit: 4; fill: rgb(255,255,255); fill-rule: nonzero; opacity: 1; visibility: hidden;" vector-effect="non-scaling-stroke"  x="-540" y="-540" rx="0" ry="0" width="1080" height="1080" />
</g>
		<g transform="matrix(1.33 0 0 1.33 -102.28 -206.01)"  >
<path style="stroke: none; stroke-width: 1; stroke-dasharray: none; stroke-linecap: butt; stroke-dashoffset: 0; stroke-linejoin: miter; stroke-miterlimit: 4; fill: rgb(255,255,255); fill-rule: nonzero; opacity: 1;" vector-effect="non-scaling-stroke"  transform=" translate(-301.85, -228.6)" d="M 231.42 306.99 C 235.82229999999998 307.029062 373.02 308.2791 372.12 308.2791 C 386.276 308.2791 395.17900000000003 293.0171 388.21 280.68910000000005 C 382.77639999999997 271.0719 326.09299999999996 170.76910000000004 319.073 158.34910000000005 C 312.3386 146.43110000000004 294.61199999999997 145.22010000000006 287.034 158.05613000000005 L 215.65499999999997 279.10613000000006 C 208.42449999999997 291.3791300000001 217.18619999999999 306.86813000000006 231.42499999999998 306.9971300000001 z M 225.5684 284.939 L 296.9474 163.889 C 299.72860000000003 159.15460000000002 306.4669 159.43980000000002 309.04540000000003 164.00228 L 378.18240000000003 286.34228 C 380.83470000000005 291.03368 377.41678 296.76428000000004 372.11600000000004 296.76428000000004 C 371.31912000000005 296.76428000000004 232.31600000000003 295.49088000000006 231.52600000000004 295.47518 C 226.16270000000003 295.432211 222.83070000000004 289.58848 225.57290000000003 284.93218 z" stroke-linecap="round" />
</g>
		<g transform="matrix(1.33 0 0 1.33 -102.28 -210.52)"  >
<path style="stroke: none; stroke-width: 1; stroke-dasharray: none; stroke-linecap: butt; stroke-dashoffset: 0; stroke-linejoin: miter; stroke-miterlimit: 4; fill: rgb(255,255,255); fill-rule: nonzero; opacity: 1;" vector-effect="non-scaling-stroke"  transform=" translate(-301.85, -225.21)" d="M 296.81 257.12 C 298.8412 257.01453 299.6342 256.91688 300.4272 256.82703 C 303.11080000000004 256.50672 305.3217 256.92468599999995 307.31 254.63952999999998 C 308.3373 253.47152999999997 308.8452 251.94422999999998 308.7241 250.39342999999997 C 307.5796 236.12042999999997 312.146 218.41342999999998 312.935 199.78842999999998 C 313.04828 197.21812999999997 311.435 194.89002999999997 308.9936 194.08142999999998 C 305.19280000000003 192.81582999999998 302.7163 193.28846 298.8296 193.92517999999998 C 296.064 194.29236999999998 293.9585 196.60098 293.8491 199.38608 C 293.16941 215.58908 291.4429 234.55408 290.76320000000004 251.13608 C 290.61867000000007 254.64388 293.6109 257.34698 296.81010000000003 257.12048 z" stroke-linecap="round" />
</g>
		<g transform="matrix(1.33 0 0 1.33 -102.89 -143.38)"  >
<path style="stroke: none; stroke-width: 1; stroke-dasharray: none; stroke-linecap: butt; stroke-dashoffset: 0; stroke-linejoin: miter; stroke-miterlimit: 4; fill: rgb(255,255,255); fill-rule: nonzero; opacity: 1;" vector-effect="non-scaling-stroke"  transform=" translate(-301.39, -275.56)" d="M 292.65 272.74 C 290.06019999999995 280.033 297.24769999999995 287.342 304.68899999999996 284.00600000000003 C 310.6538 281.3498 312.47419999999994 273.77900000000005 308.67339999999996 269.158 C 304.525 264.1189 295.02539999999993 265.9432 292.65039999999993 272.74 z" stroke-linecap="round" />
</g>
		<g transform="matrix(1.33 0 0 1.33 -38.56 -137.97)"  >
<path style="stroke: none; stroke-width: 0; stroke-dasharray: none; stroke-linecap: butt; stroke-dashoffset: 0; stroke-linejoin: miter; stroke-miterlimit: 4; fill: rgb(255,255,255); fill-rule: nonzero; opacity: 1;" vector-effect="non-scaling-stroke"  transform=" translate(-350, -280)" d="M 496.41 369.74 C 487.7733 362.0877 475.922 361.0095 466.105 366.35720000000003 C 461.1909 361.74390000000005 457.937 358.32200000000006 453.718 354.5912 C 464.425 338.8062 471.57 321.35720000000003 474.773 301.9232 C 479.97610000000003 286.2042 482.9957 269.69620000000003 483.6675 252.7512 L 500.72650000000004 252.825419 L 500.74993800000004 252.825419 C 503.91793800000005 252.825419 506.488238 250.262919 506.50383800000003 247.094919 C 506.51946300000003 243.919119 503.949138 241.333219 500.773338 241.317619 L 483.62833800000004 241.243401 C 481.31973800000003 144.31740100000002 400.374338 64.593401 301.03833800000007 66.843401 L 301.03833800000007 50.241400999999996 C 301.03833800000007 47.065600999999994 298.46023800000006 44.487500999999995 295.2844380000001 44.487500999999995 C 292.1086380000001 44.487500999999995 289.5305380000001 47.065600999999994 289.5305380000001 50.241400999999996 L 289.5305380000001 67.417401 C 203.3395380000001 74.972101 126.6505380000001 145.847401 120.4905380000001 239.707401 C 119.6780380000001 239.703495 123.3967380000001 239.71912 107.3225380000001 239.652714 C 104.15453800000009 239.652714 101.5842380000001 242.215214 101.56863800000009 245.383214 C 101.55301400000009 248.55901400000002 104.12333800000009 251.144914 107.2991380000001 251.160514 L 109.8968380000001 251.172233 C 108.7406380000001 251.332393 107.6195380000001 251.410513 106.5570380000001 251.35582300000002 C 108.69763800000011 253.90662300000002 110.8343380000001 256.457423 112.97503800000011 259.004223 C 115.41253800000011 258.211253 117.88913800000012 257.93782300000004 120.3734380000001 257.879223 C 123.88903800000011 342.688223 192.89343800000012 424.699223 289.5334380000001 430.95922300000007 L 289.5334380000001 443.67422300000004 C 289.5334380000001 446.850023 292.1115380000001 449.428123 295.2873380000001 449.428123 C 298.4631380000001 449.428123 301.0412380000001 446.850023 301.0412380000001 443.67422300000004 L 301.0412380000001 443.38516300000003 C 302.4904380000001 442.54922300000004 303.93963800000006 441.717163 305.38893800000005 440.88126300000005 C 305.4006570000001 437.51016300000003 305.15455800000007 434.40076300000004 304.92018800000005 431.27576300000004 C 345.11518800000005 430.59607300000005 385.1861880000001 417.22076300000003 417.12018800000004 392.795763 C 422.93268800000004 397.006663 428.74518800000004 401.217663 434.561188 405.428763 C 432.498688 414.385763 438.182288 423.830763 444.467388 430.537763 C 469.869388 457.650763 498.076388 482.135763 528.490388 503.475763 C 541.6423880000001 512.702363 556.322388 520.635763 569.818388 511.381963 C 577.294988 507.66716299999996 579.2167880000001 503.026463 591.752388 489.53396299999997 C 601.506288 478.506963 600.451588 461.693963 589.443788 451.97196299999996 z M 457.25800000000004 373.8455 C 444.99600000000004 387.9665 444.961 387.24350000000004 442.45700000000005 391.2285 C 438.83200000000005 388.334 436.36320000000006 386.3301 430.422 381.5683 C 436.297 376.06050000000005 441.83200000000005 370.1813 446.85600000000005 363.89230000000003 C 450.38720000000006 367.07590000000005 453.3912 370.1657 457.25800000000004 373.84540000000004 z M 160.19800000000004 251.38550000000004 C 163.78780000000003 322.71350000000007 220.80700000000004 378.2355 289.538 386.53550000000007 L 289.538 411.98850000000004 C 206.94 404.40260000000006 141.018 336.90650000000005 138.048 251.28850000000006 z M 189.19400000000005 240.00650000000005 L 171.52600000000004 239.93228200000004 C 172.75260000000003 197.00628200000006 194.23700000000002 160.25628200000006 225.16700000000003 137.47228200000006 C 244.60500000000002 123.10928200000006 268.97200000000004 113.17128200000006 289.53400000000005 110.89828200000007 L 289.53400000000005 124.02728200000007 C 289.53400000000005 127.20308200000007 292.11210000000005 129.78118200000006 295.28790000000004 129.78118200000006 C 298.4637 129.78118200000006 301.0418 127.20308200000005 301.0418 124.02728200000006 L 301.0418 110.48828200000005 C 368.9678 111.88278200000005 431.8018 164.89828200000005 434.2718 241.04828200000006 C 433.50227 241.04437500000006 433.70538999999997 241.04437500000006 426.96709999999996 241.01703200000006 C 423.79909999999995 241.01703200000006 421.2288 243.57953200000006 421.2132 246.74753200000006 C 421.197575 249.92333200000007 423.7679 252.50923200000005 426.9437 252.52483200000006 L 434.1781 252.55608200000006 C 430.43589999999995 325.8960820000001 369.43609999999995 379.1060820000001 301.0381 375.9160820000001 L 301.0381 361.84208200000006 C 301.0381 358.6662820000001 298.46 356.0881820000001 295.2842 356.0881820000001 C 292.1084 356.0881820000001 289.5303 358.6662820000001 289.5303 361.84208200000006 L 289.5303 374.9010820000001 C 257.5073 370.6822820000001 226.75330000000002 354.6390820000001 204.88530000000003 330.53408200000007 C 184.63930000000002 308.1390820000001 173.33830000000003 280.9320820000001 171.70130000000003 251.44808200000006 C 172.77160000000003 251.45198800000006 167.60360000000003 251.42855100000006 189.17030000000003 251.52230100000006 C 192.33830000000003 251.52230100000006 194.90860000000004 248.95980100000006 194.9242 245.79180100000005 C 194.935919 242.60820100000004 192.3656 240.02230100000006 189.18980000000002 240.01060100000004 z M 301.04400000000004 412.64650000000006 L 301.04400000000004 387.4705000000001 C 375.6460000000001 390.6346000000001 441.92400000000004 332.3685000000001 445.684 252.59050000000008 L 472.016 252.70378000000008 C 468.05510000000004 346.0197800000001 389.75 415.33378000000005 301.03600000000006 412.6437800000001 z M 472.134 241.19650000000007 L 445.771 241.08322000000007 C 443.3413 158.95422000000008 375.62600000000003 100.38322000000008 301.04100000000005 98.97322000000005 L 301.04100000000005 78.35622000000005 C 393.75200000000007 76.03202000000005 469.79100000000005 150.41522000000003 472.1310000000001 241.19622000000004 z M 289.534 99.40650000000008 C 262.643 101.92990000000007 235.632 115.41850000000008 218.343 128.19950000000009 C 184.745 152.9335000000001 161.269 192.8905000000001 160.019 239.86950000000007 L 138.007 239.77575000000007 C 140.8547 153.72075000000007 207.421 86.71575000000007 289.53700000000003 78.99575000000007 z M 583.134 481.89650000000006 L 569.306 497.5375000000001 C 563.9896 503.5531000000001 554.517 504.6117000000001 547.994 498.8500000000001 L 547.994 498.8578130000001 L 454.963 416.6198130000001 C 450.8614 412.9948130000001 449.00600000000003 407.8073130000001 450.36920000000003 401.64681300000007 C 451.9044 395.47881300000006 455.127 394.35381300000006 467.48220000000003 379.65481300000005 C 472.91970000000003 373.48291300000005 482.4352 372.73291300000005 488.78720000000004 378.34231300000005 L 581.8142 460.576313 C 588.0564 466.099713 588.6501000000001 475.666313 583.1345 481.896313 z" stroke-linecap="round" />
</g>
</g>
</g>
<g transform="matrix(0.21 0 0 0.21 655.08 428.94)"  >
<g style="" vector-effect="non-scaling-stroke"   >
		<g transform="matrix(1 0 0 1 0 0)"  >
<rect style="stroke: none; stroke-width: 1; stroke-dasharray: none; stroke-linecap: butt; stroke-dashoffset: 0; stroke-linejoin: miter; stroke-miterlimit: 4; fill: rgb(255,255,255); fill-rule: nonzero; opacity: 1; visibility: hidden;" vector-effect="non-scaling-stroke"  x="-540" y="-540" rx="0" ry="0" width="1080" height="1080" />
</g>
		<g transform="matrix(1.33 0 0 1.33 0 -51.93)"  >
<path style="stroke: none; stroke-width: 1; stroke-dasharray: none; stroke-linecap: butt; stroke-dashoffset: 0; stroke-linejoin: miter; stroke-miterlimit: 4; fill: rgb(255,255,255); fill-rule: nonzero; opacity: 1;" vector-effect="non-scaling-stroke"  transform=" translate(-350, -280)" d="M 621.25 173.05 L 621.25 106.94500000000001 L 596.734 100.70670000000001 C 595.691 97.9137 594.5192000000001 95.11690000000002 593.234 92.33170000000001 L 606.1750000000001 70.55470000000001 L 559.4330000000001 23.812700000000014 L 537.6560000000001 36.76170000000001 C 534.8826 35.47650000000001 532.0740000000001 34.30470000000001 529.2927000000001 33.26170000000001 L 523.0466000000001 8.753700000000013 L 456.9416000000001 8.753700000000013 L 450.7111000000001 33.269700000000014 C 447.9299000000001 34.312700000000014 445.1213000000001 35.472800000000014 442.3478000000001 36.769700000000014 L 420.57080000000013 23.820700000000016 L 385.14880000000016 59.24270000000001 C 372.7348000000002 49.22270000000002 357.41080000000017 43.754700000000014 341.25080000000014 43.754700000000014 C 329.14880000000016 43.754700000000014 317.7588000000001 46.84450000000001 307.81680000000017 52.27030000000001 C 290.10580000000016 25.293300000000013 260.2078000000002 8.754300000000015 227.50080000000017 8.754300000000015 C 174.43080000000018 8.754300000000015 131.25080000000017 51.934300000000015 131.25080000000017 105.00430000000001 C 131.25080000000017 108.13710000000002 131.46955000000017 111.26210000000002 131.77424000000016 114.37540000000001 C 130.15704000000017 114.58634 128.53594000000015 114.77774000000001 126.91874000000016 115.11759 C 103.75874000000016 119.94569000000001 84.94574000000016 138.75859 80.11374000000015 161.92259 C 76.26214000000014 180.39559000000003 80.75436000000015 199.23159 92.44174000000015 213.61759 C 104.14074000000015 228.00459 121.47674000000015 236.25459 140.00074000000015 236.25459 L 210.00074000000015 236.25459 C 214.82884000000016 236.25459 218.75074000000015 240.18429 218.75074000000015 245.00459 L 218.75074000000015 262.50459 C 218.75074000000015 267.32489 214.82884000000016 271.25459 210.00074000000015 271.25459 L 148.75074000000015 271.25459 C 134.27774000000014 271.25459 122.50074000000015 283.03159 122.50074000000015 297.50459 C 122.50074000000015 311.97759 134.27774000000014 323.75459 148.75074000000015 323.75459 L 227.50074000000015 323.75459 C 232.32884000000016 323.75459 236.25074000000015 327.68429000000003 236.25074000000015 332.50459 L 236.25074000000015 428.75459 L 122.50074000000015 428.75459 C 98.37574000000015 428.75459 78.75074000000015 448.37959 78.75074000000015 472.50459 C 78.75074000000015 496.62959 98.37574000000015 516.25459 122.50074000000015 516.25459 L 271.2507400000002 516.25459 L 271.2507400000002 551.25459 L 586.2507400000002 551.25459 L 586.2507400000002 229.36459000000002 L 606.1727400000002 209.43059000000002 L 593.2317400000002 187.65359 C 594.5169400000002 184.88019 595.6887400000002 182.07939000000002 596.7317400000002 179.29029 z M 227.5 306.25 L 148.75 306.25 C 143.9219 306.25 140 302.3203 140 297.5 C 140 292.6797 143.9219 288.75 148.75 288.75 L 210 288.75 C 224.473 288.75 236.25 276.973 236.25 262.5 L 236.25 245 C 236.25 230.527 224.473 218.75 210 218.75 L 140 218.75 C 126.77 218.75 114.39099999999999 212.8516 106.031 202.57 C 97.6755 192.289 94.47200000000001 178.777 97.238 165.488 C 100.6755 149.039 114.031 135.676 130.488 132.246 C 143.797 129.4648 157.297 132.67569 167.57 141.0312 C 177.851 149.3906 183.75 161.7692 183.75 175.0002 L 201.25 175.0002 C 201.25 156.4772 193.0078 139.1522 178.613 127.45320000000001 C 170.0974 120.53130000000002 160.011 116.19120000000001 149.363 114.55520000000001 C 148.97628 111.3872 148.74972 108.20360000000001 148.74972 105.00050000000002 C 148.74972 61.58250000000002 184.07371999999998 26.250500000000017 227.49972 26.250500000000017 C 254.54672 26.250500000000017 279.22972 40.074500000000015 293.64772 62.57050000000002 C 279.91372 75.35550000000002 271.24971999999997 93.53950000000002 271.24971999999997 113.75050000000002 L 288.74971999999997 113.75050000000002 C 288.74971999999997 84.79750000000001 312.29672 61.25050000000002 341.24971999999997 61.25050000000002 C 354.33171999999996 61.25050000000002 366.65972 66.06300000000002 376.31971999999996 74.77050000000001 L 386.76872 92.34850000000002 C 385.48352 95.12970000000001 384.31172 97.92270000000002 383.26872 100.72350000000002 L 358.74872 106.95400000000002 L 358.74872 173.05900000000003 L 383.26472 179.29730000000004 C 384.30772 182.09030000000004 385.47952000000004 184.88710000000003 386.76472 187.66060000000004 L 373.82372000000004 209.43760000000003 L 383.13622000000004 218.75010000000003 L 253.74622000000005 218.75010000000003 L 253.74622000000005 236.25010000000003 L 271.24622000000005 236.25010000000003 L 271.24622000000005 428.75010000000003 L 253.74622000000005 428.75010000000003 L 253.74622000000005 332.50010000000003 C 253.74622000000005 318.0271 241.96922000000006 306.25010000000003 227.49622000000005 306.25010000000003 z M 183.75 498.75 L 166.25 498.75 L 166.25 446.25 L 183.75 446.25 z M 201.25 481.25 L 306.25 481.25 L 306.25 498.75 L 201.25 498.75 z M 323.75 450.125 L 373.738 468.867 C 375.2419 469.43731 376.2497 470.8904 376.2497 472.4998 C 376.2497 474.1092 375.24190000000004 475.5623 373.7302 476.13259999999997 L 323.7502 494.8746 z M 306.25 463.75 L 201.25 463.75 L 201.25 446.25 L 306.25 446.25 z M 96.25 472.5 C 96.25 458.027 108.027 446.25 122.5 446.25 L 148.75 446.25 L 148.75 498.75 L 122.5 498.75 C 108.027 498.75 96.25 486.973 96.25 472.5 z M 568.75 533.75 L 288.75 533.75 L 288.75 516.25 L 316.594 516.25 L 379.875 492.52 C 388.168 489.4145 393.75 481.364 393.75 472.5 C 393.75 463.636 388.168 455.586 379.883 452.48 L 316.594 428.75 L 288.75 428.75 L 288.75 236.25 L 400.64 236.25 L 420.574 256.184 L 442.351 243.235 C 445.1244 244.52020000000002 447.933 245.692 450.7143 246.735 L 456.9565 271.25100000000003 L 523.0615 271.25100000000003 L 529.2998 246.73500000000004 C 532.081 245.69200000000004 534.8896 244.53190000000004 537.6631 243.23500000000004 L 559.4401 256.184 L 568.7526 246.86370000000002 z M 583.152 164.68 L 581.6832 169.30110000000002 C 580.1168 174.19170000000003 578.0426000000001 179.1449 575.523 184.02810000000002 L 573.2847 188.34060000000002 L 584.1867000000001 206.68060000000003 L 556.6867000000001 234.18060000000003 L 538.3547000000001 223.27860000000004 L 534.0500000000001 225.50130000000004 C 529.1516 228.02860000000004 524.1984000000001 230.09510000000003 519.296 231.66150000000005 L 514.6749000000001 233.14200000000005 L 509.4522000000001 253.74700000000004 L 470.55720000000014 253.74700000000004 L 465.32280000000014 233.14900000000006 L 460.70170000000013 231.66850000000005 C 455.80330000000015 230.10210000000006 450.8501000000001 228.03570000000005 445.9477000000001 225.50830000000005 L 441.6430000000001 223.28560000000004 L 423.3110000000001 234.18760000000003 L 395.8110000000001 206.68760000000003 L 406.7130000000001 188.34760000000003 L 404.4747000000001 184.03510000000003 C 401.9552000000001 179.15230000000003 399.8809000000001 174.19920000000002 398.3145000000001 169.30810000000002 L 396.84570000000014 164.687 L 376.2477000000001 159.4487 L 376.2477000000001 120.55369999999999 L 396.84570000000014 115.3115 L 398.3145000000001 110.6904 C 399.8809000000001 105.8076 401.95510000000013 100.8466 404.48250000000013 95.9634 L 406.71300000000014 91.6509 L 395.81100000000015 73.31889999999999 L 423.31100000000015 45.818899999999985 L 441.64300000000014 56.720899999999986 L 445.94770000000017 54.49819999999998 C 450.84610000000015 51.970899999999986 455.7993000000002 49.90439999999998 460.7017000000002 48.33799999999998 L 465.3228000000002 46.85749999999998 L 470.5455000000002 26.24449999999998 L 509.44050000000016 26.24449999999998 L 514.6749000000002 46.84249999999998 L 519.2960000000002 48.32299999999998 C 524.1944000000002 49.88939999999998 529.1476000000001 51.95579999999998 534.0500000000002 54.48319999999998 L 538.3547000000002 56.705899999999986 L 556.6867000000002 45.803899999999985 L 584.1867000000002 73.30389999999998 L 573.2847000000002 91.63589999999999 L 575.5152000000002 95.94839999999999 C 578.0425000000001 100.839 580.1168000000001 105.7922 581.6832000000002 110.6754 L 583.1520000000002 115.2965 L 603.7500000000001 120.5426 L 603.7500000000001 159.4376 z" stroke-linecap="round" />
</g>
		<g transform="matrix(1.33 0 0 1.33 190.79 -237.15)"  >
<path style="stroke: none; stroke-width: 1; stroke-dasharray: none; stroke-linecap: butt; stroke-dashoffset: 0; stroke-linejoin: miter; stroke-miterlimit: 4; fill: rgb(255,255,255); fill-rule: nonzero; opacity: 1;" vector-effect="non-scaling-stroke"  transform=" translate(-490, -140)" d="M 490 61.25 C 446.574 61.25 411.25 96.582 411.25 140 C 411.25 183.418 446.574 218.75 490 218.75 C 533.4259999999999 218.75 568.75 183.418 568.75 140 C 568.75 96.582 533.426 61.25 490 61.25 z M 490 201.25 C 456.234 201.25 428.75 173.773 428.75 140 C 428.75 106.227 456.234 78.75 490 78.75 C 523.7660000000001 78.75 551.25 106.227 551.25 140 C 551.25 173.773 523.766 201.25 490 201.25 z" stroke-linecap="round" />
</g>
		<g transform="matrix(1.33 0 0 1.33 192.18 -236.03)"  >
<path style="stroke: none; stroke-width: 1; stroke-dasharray: none; stroke-linecap: butt; stroke-dashoffset: 0; stroke-linejoin: miter; stroke-miterlimit: 4; fill: rgb(255,255,255); fill-rule: nonzero; opacity: 1;" vector-effect="non-scaling-stroke"  transform=" translate(-490, -140)" d="M 490 96.25 C 465.875 96.25 446.25 115.875 446.25 140 C 446.25 164.125 465.875 183.75 490 183.75 C 514.125 183.75 533.75 164.125 533.75 140 C 533.75 115.875 514.125 96.25 490 96.25 z M 490 166.25 C 475.527 166.25 463.75 154.473 463.75 140 C 463.75 125.52699999999999 475.527 113.75 490 113.75 C 504.473 113.75 516.25 125.527 516.25 140 C 516.25 154.473 504.473 166.25 490 166.25 z" stroke-linecap="round" />
</g>
		<g transform="matrix(1.33 0 0 1.33 -13.25 95.97)"  >
<path style="stroke: none; stroke-width: 1; stroke-dasharray: none; stroke-linecap: butt; stroke-dashoffset: 0; stroke-linejoin: miter; stroke-miterlimit: 4; fill: rgb(255,255,255); fill-rule: nonzero; opacity: 1;" vector-effect="non-scaling-stroke"  transform=" translate(-336.88, -383.72)" d="M 323.75 390.13 L 312.438 378.814 L 300.063 391.189 L 323.751 414.87300000000005 L 373.68899999999996 364.9390000000001 L 361.31399999999996 352.5640000000001 z" stroke-linecap="round" />
</g>
		<g transform="matrix(1.33 0 0 1.33 -16.34 0.65)"  >
<path style="stroke: none; stroke-width: 1; stroke-dasharray: none; stroke-linecap: butt; stroke-dashoffset: 0; stroke-linejoin: miter; stroke-miterlimit: 4; fill: rgb(255,255,255); fill-rule: nonzero; opacity: 1;" vector-effect="non-scaling-stroke"  transform=" translate(-336.88, -313.72)" d="M 323.75 320.13 L 312.438 308.814 L 300.063 321.189 L 323.751 344.87300000000005 L 373.68899999999996 294.9390000000001 L 361.31399999999996 282.5640000000001 z" stroke-linecap="round" />
</g>
		<g transform="matrix(1.33 0 0 1.33 167.46 -99.92)"  >
<path style="stroke: none; stroke-width: 1; stroke-dasharray: none; stroke-linecap: butt; stroke-dashoffset: 0; stroke-linejoin: miter; stroke-miterlimit: 4; fill: rgb(255,255,255); fill-rule: nonzero; opacity: 1;" vector-effect="non-scaling-stroke"  transform=" translate(-472.5, -297.5)" d="M 393.75 288.75 L 551.25 288.75 L 551.25 306.25 L 393.75 306.25 z" stroke-linecap="round" />
</g>
		<g transform="matrix(1.33 0 0 1.33 190.85 31.75)"  >
<path style="stroke: none; stroke-width: 1; stroke-dasharray: none; stroke-linecap: butt; stroke-dashoffset: 0; stroke-linejoin: miter; stroke-miterlimit: 4; fill: rgb(255,255,255); fill-rule: nonzero; opacity: 1;" vector-effect="non-scaling-stroke"  transform=" translate(-490, -332.5)" d="M 428.75 323.75 L 551.25 323.75 L 551.25 341.25 L 428.75 341.25 z" stroke-linecap="round" />
</g>
		<g transform="matrix(1.33 0 0 1.33 74.36 30.75)"  >
<path style="stroke: none; stroke-width: 1; stroke-dasharray: none; stroke-linecap: butt; stroke-dashoffset: 0; stroke-linejoin: miter; stroke-miterlimit: 4; fill: rgb(255,255,255); fill-rule: nonzero; opacity: 1;" vector-effect="non-scaling-stroke"  transform=" translate(-402.5, -332.5)" d="M 393.75 323.75 L 411.25 323.75 L 411.25 341.25 L 393.75 341.25 z" stroke-linecap="round" />
</g>
		<g transform="matrix(1.33 0 0 1.33 167.46 80.42)"  >
<path style="stroke: none; stroke-width: 1; stroke-dasharray: none; stroke-linecap: butt; stroke-dashoffset: 0; stroke-linejoin: miter; stroke-miterlimit: 4; fill: rgb(255,255,255); fill-rule: nonzero; opacity: 1;" vector-effect="non-scaling-stroke"  transform=" translate(-472.5, -367.5)" d="M 393.75 358.75 L 551.25 358.75 L 551.25 376.25 L 393.75 376.25 z" stroke-linecap="round" />
</g>
		<g transform="matrix(1.33 0 0 1.33 261.03 126.08)"  >
<path style="stroke: none; stroke-width: 1; stroke-dasharray: none; stroke-linecap: butt; stroke-dashoffset: 0; stroke-linejoin: miter; stroke-miterlimit: 4; fill: rgb(255,255,255); fill-rule: nonzero; opacity: 1;" vector-effect="non-scaling-stroke"  transform=" translate(-542.5, -402.5)" d="M 533.75 393.75 L 551.25 393.75 L 551.25 411.25 L 533.75 411.25 z" stroke-linecap="round" />
</g>
		<g transform="matrix(1.33 0 0 1.33 144.18 126.08)"  >
<path style="stroke: none; stroke-width: 1; stroke-dasharray: none; stroke-linecap: butt; stroke-dashoffset: 0; stroke-linejoin: miter; stroke-miterlimit: 4; fill: rgb(255,255,255); fill-rule: nonzero; opacity: 1;" vector-effect="non-scaling-stroke"  transform=" translate(-455, -402.5)" d="M 393.75 393.75 L 516.25 393.75 L 516.25 411.25 L 393.75 411.25 z" stroke-linecap="round" />
</g>
		<g transform="matrix(1.33 0 0 1.33 120.96 211.35)"  >
<path style="stroke: none; stroke-width: 1; stroke-dasharray: none; stroke-linecap: butt; stroke-dashoffset: 0; stroke-linejoin: miter; stroke-miterlimit: 4; fill: rgb(255,255,255); fill-rule: nonzero; opacity: 1;" vector-effect="non-scaling-stroke"  transform=" translate(-437.5, -472.5)" d="M 437.5 446.25 C 423.027 446.25 411.25 458.027 411.25 472.5 C 411.25 486.973 423.027 498.75 437.5 498.75 C 451.973 498.75 463.75 486.973 463.75 472.5 C 463.75 458.027 451.973 446.25 437.5 446.25 z M 437.5 481.25 C 432.6719 481.25 428.75 477.3203 428.75 472.5 C 428.75 467.6797 432.6719 463.75 437.5 463.75 C 442.3281 463.75 446.25 467.6797 446.25 472.5 C 446.25 477.3203 442.3281 481.25 437.5 481.25 z" stroke-linecap="round" />
</g>
		<g transform="matrix(1.33 0 0 1.33 214.3 209.35)"  >
<path style="stroke: none; stroke-width: 1; stroke-dasharray: none; stroke-linecap: butt; stroke-dashoffset: 0; stroke-linejoin: miter; stroke-miterlimit: 4; fill: rgb(255,255,255); fill-rule: nonzero; opacity: 1;" vector-effect="non-scaling-stroke"  transform=" translate(-507.5, -472.5)" d="M 507.5 446.25 C 493.027 446.25 481.25 458.027 481.25 472.5 C 481.25 486.973 493.027 498.75 507.5 498.75 C 521.973 498.75 533.75 486.973 533.75 472.5 C 533.75 458.027 521.973 446.25 507.5 446.25 z M 507.5 481.25 C 502.6719 481.25 498.75 477.3203 498.75 472.5 C 498.75 467.6797 502.6719 463.75 507.5 463.75 C 512.3281 463.75 516.25 467.6797 516.25 472.5 C 516.25 477.3203 512.3281 481.25 507.5 481.25 z" stroke-linecap="round" />
</g>
</g>
</g>
<g transform="matrix(2.12 0 0 2.12 299.92 877.74)"  >
<path style="stroke: none; stroke-width: 1; stroke-dasharray: none; stroke-linecap: butt; stroke-dashoffset: 0; stroke-linejoin: miter; stroke-miterlimit: 4; fill: rgb(255,255,255); fill-rule: nonzero; opacity: 1;" vector-effect="non-scaling-stroke"  transform=" translate(-246.74, -438.01)" d="M 301.05 390.04 C 303.2961 389.66109 304.9484 387.7275 304.9719 385.4502 C 304.9719 382.83299999999997 302.8821 380.6924 300.2688 380.6338 L 201.4288 379.96193 C 200.62802 379.87989799999997 199.8194 379.87989799999997 199.0186 379.96193 C 195.667 380.57520999999997 192.6983 382.49313 190.7647 385.29783 C 188.8311 388.10253 188.0928 391.56343 188.7139 394.91112999999996 L 206.5229 492.12613 L 206.5229 492.13003599999996 C 206.8979 494.58313599999997 209.1206 496.32533599999994 211.5932 496.10273599999994 C 214.0698 495.8800759999999 215.9448 493.77073599999994 215.8744 491.29023599999994 L 216.49159 405.3292359999999 z" stroke-linecap="round" />
</g>
<g transform="matrix(2.12 0 0 2.12 735.01 205.17)"  >
<path style="stroke: none; stroke-width: 1; stroke-dasharray: none; stroke-linecap: butt; stroke-dashoffset: 0; stroke-linejoin: miter; stroke-miterlimit: 4; fill: rgb(255,255,255); fill-rule: nonzero; opacity: 1;" vector-effect="non-scaling-stroke"  transform=" translate(-453.26, -121.88)" d="M 398.95 169.96 C 396.7039 170.33891 395.0516 172.2725 395.0281 174.5498 C 395.0281 177.167 397.1179 179.3076 399.7312 179.3662 L 498.5712 180.03807 C 499.37197999999995 180.120102 500.18059999999997 180.120102 500.98139999999995 180.03807 C 504.33299999999997 179.42479 507.3016999999999 177.50687 509.23529999999994 174.70217 C 511.16889999999995 171.89747 511.90719999999993 168.43657 511.2860999999999 165.08887 L 493.4770999999999 67.64786999999998 C 493.1020999999999 65.19086999999999 490.8793999999999 63.45256999999998 488.4067999999999 63.67516999999998 C 485.9301999999999 63.89782999999998 484.0551999999999 66.00326999999999 484.1255999999999 68.48766999999998 L 483.5084099999999 154.44867 z" stroke-linecap="round" />
</g>
<g transform="matrix(0 0 0 0 0 0)"  >
<g style=""   >
</g>
</g>
<g transform="matrix(0 0 0 0 0 0)"  >
<g style=""   >
</g>
</g>
<g transform="matrix(0 0 0 0 0 0)"  >
<g style=""   >
</g>
</g>
<g transform="matrix(0.23 0 0 0.23 368.35 543.58)"  >
<rect style="stroke: none; stroke-width: 1; stroke-dasharray: none; stroke-linecap: butt; stroke-dashoffset: 0; stroke-linejoin: miter; stroke-miterlimit: 4; fill: rgb(255,255,255); fill-rule: nonzero; opacity: 1; visibility: hidden;" vector-effect="non-scaling-stroke"  x="-540" y="-540" rx="0" ry="0" width="1080" height="1080" />
</g>
<g transform="matrix(0.31 0 0 0.31 371.19 514.34)"  >
<path style="stroke: none; stroke-width: 1; stroke-dasharray: none; stroke-linecap: butt; stroke-dashoffset: 0; stroke-linejoin: miter; stroke-miterlimit: 4; fill: rgb(0,0,0); fill-rule: nonzero; opacity: 1;" vector-effect="non-scaling-stroke"  transform=" translate(-350, -262.5)" d="M 376.25 262.5 C 376.25 248.027 364.473 236.25 350 236.25 C 335.527 236.25 323.75 248.027 323.75 262.5 L 323.75 288.75 L 376.25 288.75 z" stroke-linecap="round" />
</g>
<g transform="matrix(0.31 0 0 0.31 371.23 533.15)"  >
<path style="stroke: none; stroke-width: 1; stroke-dasharray: none; stroke-linecap: butt; stroke-dashoffset: 0; stroke-linejoin: miter; stroke-miterlimit: 4; fill: rgb(0,0,0); fill-rule: nonzero; opacity: 1;" vector-effect="non-scaling-stroke"  transform=" translate(-350, -323.75)" d="M 306.25 306.25 L 393.75 306.25 L 393.75 341.25 L 306.25 341.25 z" stroke-linecap="round" />
</g>
<g transform="matrix(0.31 0 0 0.31 371.68 520.46)"  >
<path style="stroke: none; stroke-width: 1; stroke-dasharray: none; stroke-linecap: butt; stroke-dashoffset: 0; stroke-linejoin: miter; stroke-miterlimit: 4; fill: rgb(255,255,255); fill-rule: nonzero; opacity: 1;" vector-effect="non-scaling-stroke"  transform=" translate(-350, -280)" d="M 140 122.47 C 107.039 166.353 87.5 220.892 87.5 280 C 87.5 424.98 205.01999999999998 542.5 350 542.5 C 494.98 542.5 612.5 424.98 612.5 280 C 612.5 135.01999999999998 494.98 17.5 350 17.5 C 293.152 17.5 240.51999999999998 35.578 197.54 66.289 L 166.25099999999998 35 L 166.25099999999998 131.25 L 262.501 131.25 L 235.30599999999998 104.055 C 268.286 82.52000000000001 307.67699999999996 70 350.006 70 C 465.986 70 560.006 164.01999999999998 560.006 280 C 560.006 395.98 465.986 490 350.006 490 C 234.02599999999995 490 140.00599999999997 395.98 140.00599999999997 280 C 140.00599999999997 234.281 154.61899999999997 191.977 179.41599999999997 157.5" stroke-linecap="round" />
</g>
<g transform="matrix(0.31 0 0 0.31 371.42 520.08)"  >
<path style="stroke: none; stroke-width: 1; stroke-dasharray: none; stroke-linecap: butt; stroke-dashoffset: 0; stroke-linejoin: miter; stroke-miterlimit: 4; fill: rgb(255,255,255); fill-rule: nonzero; opacity: 1;" vector-effect="non-scaling-stroke"  transform=" translate(-350, -280)" d="M 451.73 183.75 C 414.605 183.75 378.992 168.996 352.73400000000004 142.746 L 349.99570000000006 139.9999 L 347.24960000000004 142.746 C 320.99960000000004 168.996 285.38660000000004 183.75 248.26160000000004 183.75 L 244.99600000000004 183.75 L 244.99600000000004 303.17 C 244.99600000000004 332.432 259.617 359.74800000000005 283.961 375.971 L 349.996 419.998 L 416.03099999999995 375.978 C 440.37499999999994 359.744 454.996 332.427 454.996 303.169 L 454.996 183.74899999999997 z M 271.25 218.75 L 271.25 201.25 L 288.75 201.25 L 288.75 218.75 z M 411.25 350 C 411.25 354.8398 407.3281 358.75 402.5 358.75 L 297.5 358.75 C 292.6719 358.75 288.75 354.8398 288.75 350 L 288.75 297.5 C 288.75 292.6602 292.6719 288.75 297.5 288.75 L 306.25 288.75 L 306.25 262.5 C 306.25 238.375 325.875 218.75 350 218.75 C 374.125 218.75 393.75 238.375 393.75 262.5 L 393.75 288.75 L 402.5 288.75 C 407.3281 288.75 411.25 292.6602 411.25 297.5 z M 428.75 218.75 L 411.25 218.75 L 411.25 201.25 L 428.75 201.25 z" stroke-linecap="round" />
</g>
<g transform="matrix(0 0 0 0 0 0)"  >
<g style=""   >
</g>
</g>
<g transform="matrix(0 0 0 0 0 0)"  >
<g style=""   >
</g>
</g>
<g transform="matrix(0 0 0 0 0 0)"  >
<g style=""   >
</g>
</g>
</svg>